<svg id="Layer_1" data-name="Layer 1" xmlns="http://www.w3.org/2000/svg" viewBox="0 0 787.11 83.35"><title>decor-line-2</title><g id="Desktop---Final-designs" opacity="0.2"><g id="Outer-Graphic"><g id="Right-Graphic"><g id="Fill-19"><path d="M788,6.34H287a5.89,5.89,0,0,1-2.73,2.42,4.57,4.57,0,0,1-1.29.19l-.47,0L243.28,76.12a4.43,4.43,0,0,1-3.36,7.32,4.42,4.42,0,0,1-4-2.61H.89V77.19h235a4.42,4.42,0,0,1,4-2.61h0L279.32,7.09a4.43,4.43,0,0,1,3.61-7,4.4,4.4,0,0,1,4,2.61L788,2.65Z" transform="translate(-0.89 -0.09)" fill="#fff" fill-rule="evenodd"/></g></g></g></g></svg>