<svg id="Layer_1" data-name="Layer 1" xmlns="http://www.w3.org/2000/svg" viewBox="0 0 18.88 18.03"><title>icon-message</title><g id="symbols"><g id="Group-6"><g id="Group-2"><circle cx="4.5" cy="9.5" r="1.5" fill="#fff"/><circle cx="9" cy="8.5" r="1.5" fill="#fff"/><circle cx="13.5" cy="9.5" r="1.5" fill="#fff"/><path d="M16.89,13.33a9,9,0,1,0-2.51,2.88L18.88,18ZM4.5,11A1.5,1.5,0,1,1,6,9.5,1.5,1.5,0,0,1,4.5,11ZM9,10a1.5,1.5,0,1,1,1.5-1.5A1.5,1.5,0,0,1,9,10Zm3-.5A1.5,1.5,0,1,1,13.5,11,1.5,1.5,0,0,1,12,9.5Z" fill="#fff" fill-rule="evenodd"/><circle cx="4.5" cy="9.5" r="1.5"/><circle cx="9" cy="8.5" r="1.5" opacity="0.6" style="isolation:isolate"/><circle cx="13.5" cy="9.5" r="1.5" opacity="0.3" style="isolation:isolate"/></g></g></g></svg>