<?xml version="1.0" encoding="utf-8"?>
<!-- Generator: Adobe Illustrator 23.0.0, SVG Export Plug-In . SVG Version: 6.00 Build 0)  -->
<svg version="1.1" id="Layer_1" xmlns="http://www.w3.org/2000/svg" xmlns:xlink="http://www.w3.org/1999/xlink" x="0px" y="0px"
	 viewBox="0 0 126.5 101.8" style="enable-background:new 0 0 126.5 101.8;" xml:space="preserve">
<style type="text/css">
	.st0{fill:none;}
	.st1{fill-rule:evenodd;clip-rule:evenodd;fill:#FFFFFF;}
</style>
<title>Group 4</title>
<desc>Created with Sketch.</desc>
<g id="symbols">
	<g transform="translate(-70.000000, -199.000000)">
		<g id="Global-footer">
			<g id="Group-4" transform="translate(101.000000, 192.000000)">
				<g id="footer-logo">
					<path class="st0" d="M95.4,57.3v51.5H-31V7H95.4v48.8C95.5,56.3,95.6,56.7,95.4,57.3z"/>
					<g transform="translate(-31.000000, 4.000000)">
						<g id="Page-1">
							<g id="Group-92" transform="translate(0.000000, 1.711310)">
								<path class="st0" d="M126.4,51.6v51.5H0V1.3h126.4v48.8C126.5,50.5,126.6,51,126.4,51.6z"/>
								<path id="Fill-21" class="st0" d="M2.3,49C2.3,49,2.3,49,2.3,49C2.3,49,2.3,49,2.3,49"/>
								<path id="Fill-22" class="st1" d="M75,53.1c-0.4-2.6-1.4-5.1-2.9-7.2c0.2-0.1,0.4-0.4,0.4-0.7c-0.3,0-0.6,0.1-0.8,0.2
									c-0.1-0.1-0.2-0.3-0.3-0.4c-1.9-2.3-4.2-3.9-6.7-4.6c0-0.4-0.4-0.6-0.6-0.5c-0.1,0-0.2,0.1-0.3,0.3c0,0-0.1,0-0.1,0
									c-0.1-0.1-0.3-0.2-0.6-0.3c0,0.3,0,0.5,0.2,0.7v0.1c-0.2,0-0.3,0.1-0.4,0.2c-0.1,0.2,0,0.6,0.4,0.7v5.3
									c-0.2,0-0.4,0.1-0.6,0.3c0.2,0.2,0.4,0.3,0.6,0.3v5.7c-0.3,0.1-0.5,0.4-0.4,0.6c0.1,0.1,0.2,0.2,0.4,0.2V54
									c-0.1,0.1-0.1,0.3-0.2,0.5c0.2,0,0.4,0,0.5-0.1h0.1c0,0.2,0.1,0.3,0.2,0.4c0.2,0.1,0.5,0,0.6-0.4h3.9c0,0.2,0.1,0.5,0.3,0.7
									c0.2-0.2,0.3-0.5,0.3-0.7h4.4c0.1,0.4,0.5,0.5,0.7,0.4c0.1-0.1,0.2-0.2,0.2-0.4h0.1c0.2,0.1,0.3,0.2,0.6,0.2
									c0-0.2-0.1-0.4-0.1-0.5c0-0.1,0-0.1,0-0.2c0.2,0,0.3-0.1,0.4-0.2C75.5,53.5,75.3,53.1,75,53.1z M63.7,54.1V40.5
									c2.8,0.5,5.4,2.2,7.5,4.7c2,2.5,3.3,5.7,3.5,8.9H63.7z"/>
								<path id="Fill-23" class="st1" d="M74.4,53.7c-0.3-3-1.5-6-3.4-8.4c-0.9-1.2-2-2.1-3.2-2.9c-1.2-0.8-2.4-1.3-3.7-1.6l-0.2,0
									v13.1h10.5L74.4,53.7z M73.7,53.5H70c0-0.2-0.1-0.3-0.3-0.4c-0.2-0.1-0.3,0-0.5,0.2c0-0.2-0.1-0.4-0.3-0.6
									c-0.2,0.2-0.3,0.4-0.3,0.6c-0.2-0.2-0.3-0.2-0.5-0.2c-0.1,0-0.3,0.2-0.3,0.4h-3.2c0.1-0.2,0.2-0.3,0.2-0.6
									c-0.2,0-0.4,0.1-0.6,0.2v-5.1c0.2,0,0.4-0.1,0.5-0.3c0-0.1,0-0.3-0.2-0.5c0.2,0,0.5-0.1,0.7-0.3c-0.2-0.2-0.4-0.3-0.7-0.3
									c0.2-0.2,0.2-0.4,0.2-0.5c0-0.1-0.2-0.3-0.5-0.3v-4.3c0.1,0.1,0.3,0.2,0.5,0.2c0-0.2,0-0.4-0.1-0.6c2.2,0.7,4.3,2.1,5.9,4.1
									c-0.1,0.1-0.1,0.2-0.1,0.3c0,0.2,0.2,0.3,0.4,0.3c-0.2,0.1-0.3,0.3-0.3,0.6c0.3,0,0.5,0,0.7-0.2c-0.1,0.3,0,0.4,0.2,0.5
									c0.1,0.1,0.2,0.1,0.3,0c1.1,1.8,1.9,3.9,2.2,6c-0.1-0.1-0.3-0.1-0.5-0.1C73.5,53.2,73.6,53.4,73.7,53.5z"/>
								<path id="Fill-24" class="st1" d="M72.4,51.6L72.4,51.6c0.2-0.1,0.4-0.3,0.4-0.4c-0.2,0.1-0.4,0-0.5-0.1
									c0.2-0.1,0.4,0,0.2-0.3c-0.2-0.3-0.3-0.3-0.5-0.1c-0.2,0.2-1.5-0.1-1.5-1c0,0,0,0,0,0c0.1,0.2,0.2,0.3,0.4,0.3
									c0.6,0.4,1.2,0.1,1.3-0.4c0-0.5-0.4-0.8-1-1.2c-0.2-0.2-0.4-0.4-0.6-0.5c-0.2-0.4,0-0.7-0.5-1.4c0-0.2-0.1-0.3-0.2-0.6
									c-0.3,0.4-0.4,1.3,0.3,2c0.5,0.6,1.7,1.1,1.6,1.6c0,0.1-0.1,0.2-0.3,0.3c-0.3,0-0.5-0.2-0.8-0.4c0,0-0.1-0.1-0.1-0.1h0
									c-0.5-0.4-0.9-1.1-1.2-1.4c-0.5-0.7-0.3-1.3-0.2-1.8c0.4-0.5-0.2-1.5-0.6-1.8c0,0,0.1-0.2,0-0.5c-0.1,0.1-0.2,0.1-0.3,0
									c-0.1-0.2-0.1-0.2-0.3-0.3c-0.2,0-0.2-0.2-0.2-0.2c-0.1,0.1-0.2,0.2-0.3,0.2c-0.2,0-0.3,0-0.3,0.1c-0.1,0.1-0.2,0.1-0.4,0.1
									c-0.2,0-0.2,0.1-0.2,0.3c0,0.1,0,0.2,0.2,0.3c0,0,0,0,0.1,0l0.2,0.2l0.1-0.2c0,0,0,0,0,0c0.1-0.1,0.4-0.1,0.4,0.1
									c0,0.1,0.1,0.2-0.1,0.2c-0.2,0-0.3,0-0.5,0c-0.1,0-0.1,0.2-0.1,0.3c0,0.1,0.1,0.2,0.4,0.1c0.2-0.1,0.7-0.1,0.7,0.1
									c0,0.6-0.7,0.5-0.8,1.2c-0.2-0.1-0.3-0.2-0.4-0.3c-0.1-0.2-0.3-0.4-0.5-0.6c-0.1-0.1-0.3-0.3-0.5-0.4
									c-0.2-0.1-0.2-0.2-0.2-0.5c0-0.2,0.1-0.4,0.1-0.6c0,0,0-0.1,0-0.2c0-0.1-0.2-0.2-0.3-0.2c0,0,0.1,0.1,0.1,0.2
									c0,0-0.1,0.1-0.1,0.1c0,0.1-0.1,0.1,0,0.2c0,0,0,0,0,0c0,0,0,0.1,0,0.1c0,0,0,0,0,0c-0.1-0.1-0.1-0.3-0.2-0.3
									c0,0-0.1,0-0.1,0c0,0,0,0,0,0c0-0.1-0.2-0.3-0.3-0.1c0,0,0.1,0,0.1,0.1c0,0,0,0.1,0,0.1c0,0.2,0.1,0.2,0.3,0.2c0,0,0,0,0,0
									c0,0,0,0,0,0.1c0,0,0,0,0,0c-0.3-0.1-0.4,0-0.4,0.1c0,0,0,0.1,0,0.1c-0.1,0.1-0.1,0.2,0.1,0.3c0,0,0-0.1,0.1-0.2
									c0,0,0,0,0,0c0,0,0.1,0.1,0.1,0.1c0,0,0.1,0,0.2,0c0,0,0,0,0.1,0c0,0,0.1,0,0.1,0.1c0,0,0,0,0,0c-0.2,0.2-0.1,0.3,0.1,0.4
									c-0.1,0.2-0.4,0.1-0.4-0.2c-0.2,0.3,0.1,0.6,0.4,0.5c0,0.1,0,0.4,0,0.4c0,0,0-0.1,0.1-0.1c0,0,0,0,0,0c0,0.1,0,0.2,0.2,0.2
									c0-0.1,0-0.1,0-0.1c0.1,0.1,0.1,0.2,0.2,0.3c0.1,0.2,0.4,0.9,1.1,1.2c-0.4,0.2-0.6,0.5-0.8,0.8c-0.2,0.2-0.5,0.4-0.6,0.3
									c-0.1-0.1-0.1-0.1-0.2-0.2c-0.1-0.1-0.2-0.1-0.2-0.1c0,0-0.1,0-0.1,0c-0.1,0-0.3,0-0.3,0.1c0.1,0,0.1,0,0.2,0
									c0,0,0,0.1,0,0.1c0,0.1,0,0.2,0.4,0.1c0,0,0.1,0,0,0c0,0-0.1,0.1-0.2,0.1c-0.2,0-0.2-0.2-0.3,0c0,0,0,0.1-0.1,0.1
									c0,0,0,0,0,0c-0.1,0-0.3,0.3-0.1,0.4c0,0,0-0.1,0.1-0.2c0,0,0.1,0.1,0.1,0.1c0.1,0.1,0.2,0.2,0.4-0.1c0,0,0,0,0,0
									c0,0.2-0.2,0.4,0,0.4c0,0,0.1,0,0.1,0c0,0,0,0,0,0c0,0.2,0.3,0.2,0.4,0.2c-0.1,0-0.2-0.1-0.2-0.2c0,0,0.1,0,0.1,0
									c0.1-0.1,0-0.3,0-0.4c0,0,0,0,0.1,0c0,0.1,0.2,0.2,0.3,0.1c0.1-0.1,0.1-0.1,0.2-0.2c0.2-0.1,0.4-0.2,0.6-0.1
									c0-0.1,0.1-0.3,0.4-0.4c0.3-0.1,0.4,0,0.4,0.1c0-0.1,0.1-0.3,0.3-0.4c0,1,1.3,1,1.6,1.5c-0.4-0.2-0.8-0.2-1.1-0.2
									c-0.3,0.1-0.9,0.4-1,0.7c-0.1,0.3,0.3,0.8,0.6,1c-0.4,0.1-0.5-0.1-0.9,0c0,0,0,0,0,0c-0.3,0-0.4-0.5-0.7-0.4
									c0,0-0.1,0-0.1,0.1c-0.1,0-0.3,0.2-0.3,0.3c0,0,0.1-0.1,0.2-0.1c0,0,0,0.1,0,0.1c0,0.1,0,0.1,0.1,0.1c0.1,0,0.1,0,0.1,0
									c0,0,0,0,0,0c0,0.1-0.4-0.1-0.4,0.3c0,0,0,0.1,0.1,0.1c0,0.1,0.1,0.2,0.3,0.2c0,0-0.1-0.1-0.1-0.1c0,0,0.1,0,0.1,0
									c0,0,0,0,0-0.1c0,0,0,0,0,0c0,0,0,0,0,0c0,0,0,0,0,0.1c0,0,0,0.1,0,0.1c0,0.1,0.2,0.3,0.4,0.1c-0.1,0-0.2,0-0.2-0.1
									c0,0,0.1,0,0.1,0c0,0,0-0.1,0-0.1c0,0,0,0,0,0c0,0,0.1,0,0.1,0c0,0,0.1,0,0.1,0c0,0.1,0.2,0.2,0.3,0.1
									c0.1,0,0.1-0.1,0.1-0.1c0,0,0.1,0.1,0.2,0.1c0-0.1,0.1-0.3,0.4-0.1l0.2-0.2c0,0,0.3,0.1,0.4,0c0.2-0.2,0.1-0.2,0.1-0.3
									c-0.1-0.3-0.2-0.3-0.3-0.6c-0.1-0.5,0.6-0.8,1-0.7c0.1,0.3,0.5,1.1,1.3,1.4c0.5,0.2,0.7-0.3,0.8-0.3c0,0,0.1,0.1,0.1,0.1
									c0,0.2,0,0.4,0,0.6c-0.1,0.1-0.3,0-0.5,0C71.1,51.9,71,52,71,52c-0.1,0-0.3,0.1-0.3,0.3c0,0,0.1-0.1,0.2-0.1
									c0,0,0,0.1,0,0.1c0,0.2,0.2,0.3,0.4,0.1c0,0,0.1,0,0,0c-0.1,0.1-0.3,0.3-0.1,0.3c0,0,0.1,0,0.1,0c0,0.1,0.1,0.2,0.2,0.2
									c0-0.1,0-0.1,0-0.2c0,0,0.1,0,0.1,0c0.1,0,0.1-0.2,0.2-0.3c0,0,0,0,0,0c0,0.1-0.1,0.3,0.1,0.3c0,0,0.1,0,0.1,0
									c0,0.1,0.2,0.2,0.3,0.1c0,0-0.1-0.1-0.2-0.1c0,0,0.1-0.1,0.1-0.1c0.1-0.3-0.2-0.3-0.2-0.4c0-0.1,0.3,0,0.3-0.3c0,0,0,0,0,0
									c0.1-0.1,0.3-0.2,0.3-0.3C72.6,51.7,72.4,51.6,72.4,51.6L72.4,51.6z"/>
								<path id="Fill-25" class="st0" d="M67.2,44.5C67.2,44.5,67.2,44.5,67.2,44.5"/>
								<path id="Fill-26" class="st1" d="M59.9,59.1l-0.3,0l0-0.3c0-0.9-0.5-1.6-1.5-1.6c-0.9,0-2.6,1.1-5,1.1c-1,0-2.2-0.5-3-0.9
									l-0.3,0.7c0,0,0,0,0-0.1c0-0.3-0.3-0.6-0.6-0.6s-0.6,0.3-0.6,0.6c0,0.3,0.3,0.6,0.6,0.6c0.2,0,0.4-0.1,0.5-0.2l-0.3,0.7
									c0.1,0,0.2,0.1,0.3,0.1c-0.4,3.6,2.2,8.1,7,9.5c0.7-0.2,1.5-0.1,1.5,0.7c0,0.5-0.2,0.7-0.7,0.7c-0.3,0-0.5-0.2-0.5-0.3
									c0-0.3,0.6-0.1,0.6-0.3c0.1-0.3-0.1-0.4-0.4-0.4c-0.3,0-0.8,0.2-0.8,0.8c0,0.6,0.5,1,1.1,1c0.5,0,1.6-0.3,1.5-1.6
									c0.3,0,0.5,0,0.6-0.3l0.1-0.7l-0.3,0l0.2-8.2l0.2,0c0.3,0,0.6-0.1,0.6-0.5C60.4,59.3,60.1,59.2,59.9,59.1z M51.3,59.8
									l5.7,8.1C54,66.8,51,64,51.3,59.8z M57.3,67.1L52,59.7c0.2,0,0.3,0,0.5,0c0.3,0,0.5,0,0.8-0.1l4.2,5.9
									C57.4,66.2,57.3,66.7,57.3,67.1z M57.7,64.8L54,59.6c0.4-0.1,0.8-0.2,1.2-0.3l2.8,3.9C57.8,63.7,57.7,64.2,57.7,64.8z
									 M58.5,59l-0.2,0c-0.3,0-0.6,0.1-0.6,0.4c0,0.3,0.2,0.5,0.5,0.5l0.1,0L58,62.3L55.7,59c1.1-0.4,2-0.9,2.4-0.9
									C58.5,58.1,58.6,58.3,58.5,59z"/>
								<path id="Fill-27" class="st0" d="M58,41.8C58,41.8,58,41.8,58,41.8"/>
								<path id="Fill-28" class="st1" d="M61,43.3c0-1.3-3.2-0.5-3.2-1.3c0-0.1,0.1-0.2,0.2-0.3c1.6-0.1,1.7-1.3,2.8-1.5
									c-1.4-0.2-1.6,0.9-2.2,0.9c0.3-0.1,0.4-0.5,0.4-0.7c-0.3,0.4-0.9,0.4-1.2,0.8c0,0.1-0.1,0.2-0.1,0.2
									c-0.2,0.1-0.3,0.3-0.3,0.5c0,1.2,3.2,0.4,3.2,1.3c0,0.3-0.6,0.5-1.5,0.5c-0.7,0-1.1-0.5-2.4-0.2c0-0.2,0.4-0.6,0.3-0.8
									c0.1-0.1,0.2-0.2,0.2-0.3c-0.1-0.1-0.2-0.1-0.2-0.1c0-0.1,0-0.1-0.1-0.2c0,0,0-0.1-0.1-0.2c0,0-0.1-0.1-0.3-0.2
									c-0.2-0.1-0.2-0.1-0.3-0.1c0,0-0.2,0-0.2,0C56.1,42,56,42,56,42c-0.1-0.1-0.1-0.1-0.2-0.1c-0.1,0.1-0.1,0.2,0,0.4
									c-0.1,0-0.2,0.3-0.3,0.3c0,0.1,0.1,0.1,0.1,0.1c-0.1,0.2-0.1,0.4-0.3,0.4c0,0.1,0.1,0.1,0.1,0.1c-0.1,0.3-0.2,0.6-0.2,0.7
									c-0.1-0.1-0.2-0.1-0.3-0.2c-0.2-0.1-0.2-0.2-0.1-0.4c0-0.2,0.1-0.3,0.1-0.4c0,0,0-0.1,0-0.1c0-0.1-0.2-0.2-0.3-0.2
									c0,0,0.1,0.1,0.1,0.2c0,0-0.1,0.1-0.1,0.1c0,0-0.1,0.1,0,0.2c0,0,0,0,0,0c0,0,0,0,0,0.1c0,0,0,0,0,0c0-0.1-0.1-0.3-0.2-0.3
									c0,0-0.1,0-0.1,0c0,0,0,0,0,0c0-0.1-0.1-0.2-0.3-0.1c0,0,0.1,0,0.1,0c0,0,0,0.1,0,0.1c0,0.1,0.1,0.2,0.2,0.2c0,0,0,0,0,0
									c0,0,0,0,0,0c0,0,0,0,0,0c-0.2-0.1-0.3,0-0.4,0.1c0,0,0,0.1,0,0.1c-0.1,0-0.1,0.2,0,0.3c0,0,0-0.1,0.1-0.1c0,0,0,0,0,0
									c0,0,0,0.1,0.1,0.1c0,0,0,0,0.1,0c0,0,0,0,0,0c0,0,0,0,0.1,0c0,0,0,0,0,0c-0.2,0.1-0.2,0.3,0,0.3c0,0,0,0,0,0
									c-0.1,0.3-0.4,0.2-0.4,0c-0.3,0.3,0.1,0.5,0.4,0.4c0,0,0,0,0,0c0,0,0,0.1,0.1,0.1c0,0,0-0.1,0.1,0c0,0,0,0,0,0
									c0,0.1,0,0.2,0.1,0.2c0-0.1,0-0.1,0-0.1s0.1,0.2,0.3,0.4c-0.3,0.1-0.7,0.2-0.7,0.2c-0.1,0-0.4,0-0.6,0
									c-0.2,0.1-0.6,0.3-0.8,0.1c0-0.1,0-0.1-0.1-0.2c0-0.1-0.1-0.1-0.1-0.1c0,0-0.1,0-0.1,0c-0.1-0.1-0.3-0.1-0.3,0
									c0.1,0,0.1,0,0.2,0.1c0,0,0,0.1,0,0.1c0,0.1,0,0.2,0.3,0.3c0,0,0,0,0,0.1c0,0-0.1,0-0.2,0c-0.1-0.1-0.1-0.2-0.3-0.1
									c0,0-0.1,0-0.1,0c0,0,0,0,0,0c-0.1,0-0.3,0.1-0.2,0.3c0,0,0.1-0.1,0.2-0.1c0,0,0,0.1,0,0.1c0,0.1,0.1,0.3,0.4,0.1
									c0,0,0,0,0,0c-0.1,0.1-0.3,0.3-0.1,0.4c0,0,0,0,0.1,0c0,0,0,0,0,0c0,0.2,0.2,0.3,0.3,0.3c0,0-0.1-0.1-0.1-0.3
									c0,0,0.1,0,0.1,0c0.1-0.1,0.1-0.2,0.2-0.3c0,0,0,0,0,0c0,0.1,0,0.2,0.2,0.2c0.2,0,0.2-0.2,0.2-0.3c0,0,0,0,0,0
									c0.1,0,0.1,0.1,0.1,0.2c0,0,0.1-0.1,0.1-0.1c0,0.1,0,0.2-0.1,0.3c0.1,0,0.2-0.1,0.3-0.3c0,0,0,0.1,0.1,0.1c0,0,0,0,0,0
									c0.1,0,0.2,0,0.3,0c0,0,0,0,0,0c0,0.1,0,0.1,0,0.2c0,0,0-0.1,0.1-0.1c0.1,0,0,0.2,0.1,0.3c0-0.4,0.3-0.3,0.5-0.4
									c0,0,0,0,0,0c0,0,0,0.1-0.1,0.1c0.1,0,0.3-0.1,0.3-0.2c0,0,0.1-0.1,0.2-0.2c0.1,0,0.2,0,0.3-0.1c0,0,0.1,0.2,0,0.2
									c0.3,0,0.6-0.3,0.7-0.3c0.6-0.1-0.4-0.6,0.9-0.5c0.1,0,0.3,0,0.4-0.1c-0.1,0.2-0.1,0.6,0.1,0.6c0.1,0,0.3,0.1,0.3,0.1
									c0,0,0,0,0,0c-0.1,0-0.2,0-0.3,0.1c-0.3,0.2-0.3-0.4-0.6-0.3c0,0-0.1,0-0.1,0c-0.1,0-0.3,0.2-0.3,0.3c0,0,0.1-0.1,0.2-0.1
									v0.1c0,0,0,0.1,0.1,0.1c0.1,0,0.1,0,0.1,0c0,0,0,0,0,0c0,0.1-0.4-0.1-0.3,0.3c0,0,0,0.1,0.1,0.1c0,0.1,0.1,0.2,0.2,0.1
									c0,0-0.1-0.1-0.1-0.1h0.1c0,0,0,0,0,0c0,0,0,0,0,0s0,0,0,0c0,0,0,0,0,0.1c0,0,0,0.1,0,0.1c0,0.1,0.2,0.2,0.3,0.1
									c0,0-0.1,0-0.2-0.1c0,0,0.1,0,0.1,0c0,0,0-0.1,0-0.1c0,0,0,0,0,0c0,0,0.1,0,0.1,0c0,0,0.1,0,0.1,0c0,0.1,0.1,0.1,0.2,0.1
									c0.2-0.1,0-0.3,0.2-0.3c0,0,0.1,0,0.1,0c0.2,0,0.4,0,0.5,0c0-0.1,0-0.4-0.2-0.5c-0.1,0,0-0.2-0.1-0.3
									c0.2,0.1,0.4,0.2,0.6,0.2c0.5,0,0-0.1,0.2-0.2c0.2-0.2,0.5-0.1,0.5-0.1c0.1,0,0.1,0,0.1,0.1c-0.1,0.2,0,0.3,0,0.3
									c0,0.1-0.2,0-0.4,0c-0.1,0-0.1,0-0.1,0.1c-0.1,0-0.2,0.1-0.2,0.3c0,0,0.1-0.1,0.2-0.1c0,0,0,0,0,0c0,0.1,0.2,0.2,0.3,0.1
									c0,0,0,0,0,0c-0.1,0.1-0.3,0.2-0.1,0.3c0,0,0.1,0,0.1,0c0,0.1,0.1,0.2,0.1,0.2c0-0.1,0-0.1,0-0.2c0,0,0.1,0,0.1,0
									c0.1,0,0-0.2,0.2-0.3c0,0,0,0,0,0c0,0.1-0.1,0.3,0.1,0.3c0,0,0,0,0.1,0c0,0.1,0.1,0.1,0.3,0.1c0,0-0.1,0-0.1-0.1
									c0,0,0.1-0.1,0.1-0.1c0.1-0.2-0.1-0.2-0.1-0.3c0-0.1,0.2,0,0.2-0.3c0,0,0-0.1-0.1-0.1c0,0,0,0,0,0c0.1,0,0.1,0,0.2-0.1
									c-0.2,0-0.1-0.1-0.1-0.2c0,0,0,0,0,0c0.1,0,0.1-0.1,0.1-0.3c0,0.1-0.3,0.2-0.3,0c0,0,0-0.1-0.2-0.1c-0.3,0-0.4-0.1-1-0.2
									c0,0-0.1,0,0,0C60.4,44.1,61,43.7,61,43.3z M56.3,42.5c-0.1,0.1-0.2,0.1-0.2,0.1c-0.1-0.1,0-0.1-0.1-0.3
									C56,42.3,56.2,42.5,56.3,42.5z M56.5,43.1C56.4,43.1,56.4,43,56.5,43.1C56.3,42.9,56.3,43,56.5,43.1c-0.2,0-0.3-0.1-0.3,0
									c0,0,0,0.1,0,0.2c0,0,0,0.1,0,0.1c0,0.1-0.1,0.2-0.2,0.1c-0.1-0.1-0.1-0.2-0.1-0.2c0-0.1,0.1-0.1,0.1-0.1
									c0.1,0,0.1,0,0.1-0.1c0-0.1,0-0.1-0.1-0.2c0.1,0,0.1,0,0.1-0.1c0,0-0.1,0-0.1,0c0,0,0-0.1,0.1-0.1c0,0,0.1,0,0.1,0l0.3,0.1
									C56.5,42.9,56.5,42.9,56.5,43.1C56.5,43,56.5,43,56.5,43.1z M56.6,42.8c-0.1,0-0.2-0.2-0.1-0.2c0,0,0.3,0.1,0.4,0.1
									C56.7,42.8,56.8,42.8,56.6,42.8z"/>
								<path id="Fill-29" class="st1" d="M60.7,47.8c0-0.3-0.4-0.5-1.4-0.5c-1.1,0-3.5,0.4-3.5-0.2c0-0.3,0.5-0.3,1-0.2
									c0,0,0.1,0.1,0.2,0.1c1.4,0.4,3-0.3,3.9-0.1c-1-0.7-1.8,0-2.9-0.2c0.6,0,0.8-0.2,0.9-0.3c-0.5,0.3-1.4-0.2-2,0.2
									c0,0-0.1,0-0.1,0.1c-0.8,0-1.4,0-1.4,0.5c0,1.1,2.9,0.4,3.8,0.4c0.9,0,1.1,0.1,1.1,0.3c0,0.3-0.9,0.3-1.4,0.3
									c-0.8,0-3.2-0.4-4.6-0.1c0.1-0.2,0.4-0.5,0.2-0.7c0.1-0.1,0.2-0.2,0.2-0.3c-0.1-0.1-0.2-0.1-0.3-0.1c0-0.1,0-0.1-0.1-0.2
									c0,0,0-0.1-0.1-0.2c-0.1,0-0.2-0.1-0.3-0.2c-0.2-0.1-0.3-0.1-0.3-0.1c0,0-0.2,0-0.2,0c-0.1,0-0.2,0-0.2,0.1
									c-0.1,0-0.2-0.1-0.3-0.1c0,0.1-0.1,0.2,0,0.4c-0.1,0-0.3,0.3-0.4,0.3c0,0.1,0.1,0.1,0.1,0.1c-0.1,0.2-0.2,0.4-0.3,0.4
									c0.1,0.1,0.1,0.2,0.2,0.2c0,0.1,0,0.3,0,0.4l-0.2-0.1l-0.2-0.1c-0.1-0.1-0.3-0.3-0.5-0.4c-0.2-0.1-0.2-0.2-0.2-0.4
									c0-0.2,0.1-0.4,0.1-0.5c0,0,0-0.1,0-0.2c0-0.1-0.2-0.2-0.3-0.2c0,0,0.1,0.1,0.1,0.2c0,0-0.1,0.1-0.1,0.1c0,0-0.1,0.1,0,0.2
									c0,0,0,0,0,0c0,0,0,0,0,0.1c0,0,0,0,0,0c0-0.1-0.1-0.3-0.2-0.3c0,0-0.1,0-0.1,0c0,0,0,0,0,0c0-0.1-0.1-0.3-0.3-0.1
									c0,0,0.1,0,0.1,0.1c0,0,0,0.1,0,0.1c0,0.1,0.1,0.2,0.2,0.2c0,0,0,0,0,0c0,0,0,0,0,0.1c0,0,0,0,0,0c-0.3-0.1-0.4,0-0.4,0.1
									V47c-0.1,0.1-0.1,0.2,0,0.3c0,0,0-0.1,0.1-0.2c0,0,0,0,0,0c0,0,0.1,0,0.1,0.1c0,0,0.1,0,0.1,0c0,0,0,0,0.1,0c0,0,0,0,0.1,0
									c0,0,0,0,0,0c-0.2,0.2-0.2,0.3,0.1,0.3c0,0,0,0,0,0c0,0.3-0.4,0.2-0.4-0.1c-0.2,0.4,0.1,0.6,0.5,0.4c0,0,0,0,0,0
									c0,0,0.1,0.1,0.1,0.1c0,0,0-0.1,0.1-0.1c0,0,0,0,0,0c0,0.1,0,0.2,0.1,0.2c0,0,0-0.1,0-0.1c0.1,0,0.2,0.2,0.4,0.4
									c0.2,0.1,0.3,0.3,0.5,0.2c0,0.2,0.2,0.4,0.1,0.4c-0.1,0-0.6,0-0.8,0c-0.2,0.1-0.7,0.3-0.8,0.1c-0.1-0.1,0-0.1-0.1-0.3
									c0-0.1-0.1-0.1-0.2-0.1h-0.1c-0.1-0.1-0.3-0.1-0.3,0c0.1,0,0.1,0,0.2,0.1c0,0,0,0.1,0,0.1c0,0.1,0,0.2,0.3,0.3c0,0,0,0,0,0
									c0,0-0.1,0-0.2,0c-0.1-0.1-0.2-0.2-0.3-0.1c0,0-0.1,0-0.1,0c0,0,0,0,0,0c-0.1,0-0.4,0.2-0.3,0.3c0,0,0.1-0.1,0.2-0.1
									c0,0,0,0.1,0,0.1c0,0.2,0.1,0.3,0.4,0.1c0,0,0,0,0,0c-0.1,0.1-0.3,0.3-0.1,0.4c0,0,0,0,0.1,0.1c0,0,0,0,0,0
									c0,0.2,0.2,0.3,0.3,0.3c0,0-0.1-0.2-0.1-0.3c0,0,0.1,0,0.1,0c0.2-0.1,0.1-0.3,0.2-0.3c0,0,0,0,0,0c0,0.1,0.1,0.3,0.2,0.2
									c0.2,0,0.3-0.2,0.3-0.3c0,0,0,0,0,0c0.1,0,0.1,0.1,0.1,0.2c0,0,0.1-0.1,0.1-0.1c0,0.1,0,0.2-0.1,0.3c0.1,0,0.3-0.1,0.3-0.3
									c0,0,0.1,0.1,0.1,0.1c0,0,0,0,0,0c0.1,0,0.2,0,0.4,0c0,0,0,0,0,0c0,0.1,0,0.2,0,0.2c0,0,0-0.1,0.1-0.1c0,0,0,0.2,0.1,0.3
									c0-0.5,0.3-0.3,0.6-0.5c0,0,0,0,0,0c0,0.1,0,0.1-0.1,0.2c0.3,0.1,0.9-0.4,0.9-0.6c0.1,0,0.3,0,0.3,0
									c0.9,0.1,0.3-0.8,1.8-0.6c0.1,0,0.3-0.1,0.4-0.2c-0.1,0.2-0.1,0.6,0.1,0.6c0.1,0,0.3,0.1,0.4,0.2c0,0,0,0,0,0
									c-0.1,0-0.3,0.1-0.3,0.1c-0.3,0.2-0.3-0.5-0.7-0.3c0,0-0.1,0-0.1,0.1c-0.1,0-0.3,0.1-0.3,0.3c0,0,0.1-0.1,0.2-0.1
									c0,0,0,0.1,0,0.1c0,0.1,0,0.1,0.1,0.1c0.1,0,0.1,0,0.1,0c0,0,0,0,0,0c0,0.1-0.4-0.1-0.3,0.3c0,0,0,0.1,0.1,0.1
									c0,0.1,0.1,0.2,0.3,0.1c0,0-0.1-0.1-0.1-0.1h0.1c0,0,0,0,0-0.1c0,0,0,0,0,0c0,0,0,0,0,0c0,0,0,0,0,0.1c0,0,0,0.1,0,0.1
									c0,0.1,0.2,0.3,0.4,0.1c0,0-0.2,0-0.2-0.1c0,0,0.1,0,0.1,0c0,0,0-0.1,0-0.1c0,0,0,0,0,0h0.1c0,0,0.1,0,0.1,0
									c0,0.1,0.1,0.2,0.3,0.1c0.2-0.1,0-0.3,0.2-0.3c0,0,0.1,0,0.1,0c0.2,0,0.5,0,0.5,0c0-0.1,0-0.4-0.2-0.5c-0.1,0,0-0.2-0.1-0.3
									c0.2,0.1,0.4,0.2,0.7,0.2c0.5,0,0.6-0.1,0.8-0.2c0.3-0.1,0.5-0.1,0.6,0c0.1,0,0.1,0,0.1,0.1c0,0.3,0,0.3,0,0.4
									c0,0.1-0.3,0-0.4,0c-0.1,0-0.2,0.1-0.2,0.1c-0.1,0-0.3,0.1-0.3,0.3c0,0,0.1-0.1,0.2-0.1v0.1c0,0.2,0.2,0.2,0.3,0.1
									c0,0,0.1,0,0,0c-0.1,0.1-0.3,0.3-0.1,0.3c0,0,0.1,0,0.1,0c0,0.1,0.1,0.2,0.1,0.2c0-0.1,0-0.1,0-0.2c0,0,0.1,0,0.1,0
									c0.1,0,0.1-0.2,0.2-0.3c0,0,0,0,0,0c0,0.1-0.1,0.3,0,0.3c0,0,0,0,0.1,0c0,0.1,0.2,0.2,0.3,0.1c0,0-0.1,0-0.1-0.1
									c0,0,0.1-0.1,0.1-0.1c0.1-0.3-0.1-0.3-0.1-0.4s0.3,0,0.3-0.3c0,0,0-0.1-0.1-0.2v0c0.1,0,0.2,0,0.2-0.1
									c-0.2,0-0.1-0.1-0.2-0.2c0,0,0,0,0,0c0.1,0,0.1-0.1,0.1-0.3c-0.1,0.1-0.3,0.2-0.3,0c0,0,0-0.1-0.2-0.1c-0.3,0-0.6,0-1.2-0.1
									C59.6,48.4,60.7,48.2,60.7,47.8z M53.7,46.8c0,0.1-0.2,0.2-0.3,0.1c-0.1-0.1,0-0.1-0.1-0.3C53.4,46.6,53.6,46.8,53.7,46.8z
									 M53.9,47.4c0,0,0-0.1-0.1-0.1c0,0,0,0,0,0.1c-0.1,0-0.2-0.1-0.2,0c0,0.1,0,0.1,0,0.2c0,0,0,0.1,0,0.2
									c0,0.1-0.1,0.2-0.2,0.1c-0.1-0.1-0.1-0.2-0.1-0.3c0-0.1,0.1-0.1,0.1-0.1c0.1,0,0.1,0,0.1-0.1c0-0.1,0-0.1-0.1-0.2
									c0.1,0,0.1-0.1,0.1-0.1c0,0-0.1,0-0.1,0c0,0,0-0.1,0.1-0.1c0,0,0.1,0,0.1,0l0.3,0.2c0,0,0.1,0,0.1,0.1
									C53.9,47.3,53.9,47.4,53.9,47.4z M54.1,47.2c-0.1,0-0.2-0.2-0.2-0.3c0,0,0.3,0.1,0.4,0.2C54.2,47.1,54.2,47.2,54.1,47.2z"/>
								<path id="Fill-30" class="st1" d="M60.5,52.2c0-0.3-0.4-0.5-1.4-0.5c-1.1,0-4.4,0.4-4.4-0.2c0-0.4,1.1-0.2,2-0.2
									c0,0.1,0.1,0.1,0.2,0.1c1.4,0.4,2.9-0.5,3.9-0.2c-0.8-0.7-1.8,0.1-2.9-0.1c0.6,0,1.3-0.1,1.3-0.3c-0.5,0.3-1.8-0.2-2.4,0.1
									c0,0-0.1,0-0.1,0.1c-1,0-2.3-0.1-2.3,0.5c0,1.1,3.8,0.4,4.7,0.4s1.1,0.1,1.1,0.3c0,0.3-0.9,0.3-1.4,0.3
									c-0.8,0-4.4-0.5-5.8,0c0.1-0.2,0.4-0.6,0.3-0.8c0.1,0,0.2-0.2,0.2-0.3c-0.1-0.1-0.2-0.1-0.3-0.1c0-0.1,0-0.1-0.1-0.2
									c0,0,0-0.2-0.1-0.2c-0.1,0-0.2-0.1-0.3-0.2c-0.2-0.1-0.3-0.1-0.3-0.1c0,0-0.2,0-0.2,0c-0.1,0-0.2,0-0.2,0.1
									c-0.1-0.1-0.2-0.1-0.3-0.1c0,0.1-0.1,0.2,0,0.4c-0.1,0-0.3,0.3-0.4,0.3c0,0.1,0.1,0.1,0.1,0.1c-0.1,0.2-0.2,0.4-0.3,0.4
									c0,0.1,0.1,0.1,0.1,0.1c0,0.1,0,0.2,0,0.3l-0.1,0c-0.1,0-0.2,0-0.2,0c0,0-0.1,0-0.2,0c-0.2,0-0.3-0.3-0.6-0.4
									C50,51.7,50,51.6,50,51.4c0-0.2,0.1-0.4,0.1-0.5c0,0,0-0.1,0-0.2c0-0.1-0.2-0.2-0.3-0.2c0.1,0,0.1,0.1,0.1,0.2
									c0,0-0.1,0.1-0.1,0.1c0,0,0,0.1,0,0.2c0,0,0,0,0,0c0,0,0,0,0,0.1c0,0,0,0,0,0c0-0.1-0.1-0.3-0.2-0.3c0,0-0.1,0-0.1,0
									c0,0,0,0,0,0c0-0.1-0.2-0.2-0.3-0.1c0,0,0.1,0,0.1,0.1c0,0,0,0.1,0,0.1c0,0.1,0.1,0.2,0.3,0.2c0,0,0,0,0,0c0,0,0,0,0,0.1
									c0,0,0,0,0,0c-0.3-0.1-0.3,0-0.4,0.1c0,0,0,0.1,0,0.1c-0.1,0.1-0.1,0.2,0,0.3c0,0,0-0.1,0-0.1c0,0,0,0,0,0
									c0,0,0.1,0,0.1,0.1c0,0,0.1,0,0.2,0c0,0,0,0,0,0c0,0,0,0,0.1,0c0,0,0,0,0,0c-0.2,0.2-0.1,0.3,0.1,0.4c0,0,0,0,0,0
									c0,0.3-0.4,0.2-0.4-0.1c-0.2,0.3,0.2,0.6,0.5,0.4c0,0,0,0,0,0c0,0.1,0,0.1,0.1,0.1c0,0,0-0.1,0.1-0.1c0,0,0,0,0,0
									c0,0.1,0,0.2,0.1,0.2c0-0.1,0-0.1,0-0.1c0.1,0,0.3,0.4,0.7,0.6c0.1,0,0.2,0,0.3-0.1c0,0,0,0.1,0.1,0.1
									c0,0.2,0.2,0.4,0.1,0.4c-0.1,0-0.8,0-0.9,0c-0.2,0.1-0.7,0.3-0.8,0.1c0-0.1,0-0.1-0.1-0.2c-0.1-0.1-0.1-0.1-0.2-0.1
									c0,0-0.1,0-0.1,0c-0.1-0.1-0.3-0.1-0.3,0c0.1,0,0.1,0,0.2,0.1c0,0,0,0.1-0.1,0.1c0,0.1,0,0.2,0.3,0.3c0,0,0.1,0,0,0
									c0,0-0.1,0-0.2,0c-0.1-0.1-0.1-0.2-0.3-0.1c0,0-0.1,0-0.1,0c0,0,0,0,0,0c-0.1,0-0.4,0.2-0.3,0.3c0,0,0.1-0.1,0.2-0.1
									c0,0,0,0.1,0,0.1c0,0.2,0.1,0.3,0.4,0.1c0,0,0,0,0,0c-0.1,0.1-0.3,0.3-0.1,0.4c0,0,0,0,0.1,0.1c0,0,0,0,0,0
									c0,0.2,0.2,0.3,0.3,0.3c0,0-0.1-0.1-0.1-0.3c0,0,0.1,0,0.1,0c0.2-0.1,0.1-0.3,0.2-0.3c0,0,0,0,0,0c0,0.1,0,0.3,0.3,0.2
									c0.2,0,0.3-0.2,0.2-0.3c0,0,0,0,0,0c0.1,0,0.1,0.1,0.1,0.2c0,0,0.1-0.1,0.1-0.1c0,0.1,0,0.2-0.1,0.3c0.1,0,0.3-0.1,0.3-0.3
									c0,0,0.1,0.1,0.1,0.1c0,0,0,0,0,0c0.1,0,0.2,0,0.4,0c0,0,0,0,0,0c0,0.1,0,0.1,0,0.2c0,0,0-0.1,0.1-0.1c0,0,0,0.2,0.1,0.3
									c0-0.5,0.6-0.2,0.9-0.4c0,0,0,0,0,0c0,0-0.1,0.1-0.1,0.2c0.1,0,0.2-0.1,0.3-0.1c0.2-0.1,0.6-0.2,0.5-0.4c0.1,0,0.1,0,0.2,0
									c0,0,0,0.1,0,0.1c0.3,0,0.3-0.3,0.4-0.3c1.8,0.2,0.8-0.8,2.9-0.5c0.1,0,0.1-0.1,0.2-0.1c-0.1,0.2-0.1,0.5,0.1,0.6
									c0.1,0,0.3,0.1,0.4,0.1c0,0,0,0,0,0c-0.1,0-0.3,0-0.3,0.1c-0.3,0.2-0.3-0.5-0.7-0.3c0,0-0.1,0-0.1,0.1
									c-0.1,0-0.3,0.2-0.3,0.3c0,0,0.1-0.1,0.2-0.1V54c0,0.1,0,0.1,0.1,0.1c0.1,0,0.1,0,0.1,0c0,0,0,0,0,0c0,0.1-0.4-0.1-0.3,0.3
									c0,0,0,0.1,0.1,0.1c0,0.1,0.1,0.2,0.3,0.2c0,0-0.1-0.1-0.1-0.1c0,0,0.1,0,0.1,0c0,0,0,0,0-0.1c0,0,0,0,0,0c0,0,0,0,0,0
									s0,0,0,0.1c0,0,0,0.1,0,0.1c0,0.1,0.2,0.3,0.4,0.1c-0.1,0-0.2,0-0.2-0.1c0,0,0.1,0,0.1,0c0,0,0-0.1,0-0.1c0,0,0,0,0,0
									c0,0,0.1,0,0.1,0c0,0,0.1,0,0.1,0c0,0.1,0.1,0.2,0.3,0.1c0.2-0.1,0-0.3,0.2-0.3c0,0,0.1,0,0.1,0c0.2,0,0.5,0,0.5-0.1
									c0-0.1,0-0.4-0.2-0.5c-0.1,0,0-0.2-0.1-0.4c0.2,0.1,0.4,0.2,0.7,0.2c0.5,0,0.6-0.1,0.8-0.2c0.3-0.2,0.5-0.1,0.6-0.1
									s0.1,0,0.1,0.1c0,0.3,0,0.3,0,0.4c-0.1,0.1-0.3,0-0.4,0c-0.1,0-0.1,0-0.1,0.1c-0.1,0-0.3,0.1-0.3,0.3c0,0,0.1-0.1,0.2-0.1
									c0,0,0,0,0,0c0,0.2,0.2,0.2,0.3,0.1c0,0,0.1,0,0,0c-0.1,0.1-0.3,0.2-0.1,0.3c0,0,0.1,0,0.1,0c0,0.1,0.1,0.2,0.2,0.2
									c0-0.1,0-0.1,0-0.2c0,0,0.1,0,0.1,0c0.1,0,0.1-0.2,0.2-0.3c0,0,0,0,0,0c-0.1,0.1-0.1,0.3,0,0.3c0,0,0,0,0.1,0
									c0,0.1,0.2,0.2,0.3,0.1c0,0-0.1-0.1-0.1-0.1c0,0,0.1-0.1,0.1-0.1c0.1-0.3-0.2-0.3-0.2-0.4c0-0.1,0.3,0,0.3-0.3
									c0,0,0-0.1-0.1-0.2c0,0,0,0,0,0c0.1,0,0.1,0,0.2-0.1c-0.2,0-0.1-0.2-0.2-0.3c0,0,0,0,0,0c0.1,0,0.1-0.1,0.1-0.3
									c-0.1,0.1-0.3,0.2-0.3,0c0,0,0-0.1-0.2-0.1c-0.3,0-0.6,0-1.2-0.1C59.4,52.8,60.5,52.6,60.5,52.2z M52.3,51.2
									c-0.1,0.1-0.2,0.2-0.3,0.1c-0.1-0.1,0-0.1-0.1-0.3C52.1,51.1,52.3,51.2,52.3,51.2z M52.6,51.9c0,0,0-0.1-0.1-0.1
									c-0.1,0-0.1,0,0,0.1c-0.1,0-0.2-0.1-0.2,0c0,0.1,0,0.1,0,0.2c0,0,0,0.1,0,0.2c0,0.1-0.1,0.2-0.2,0.1
									c-0.1-0.1-0.1-0.2-0.1-0.3C52,52,52,52,52,52c0.1,0,0.1,0,0.1-0.1c0-0.1,0-0.1-0.1-0.2c0.1,0,0.1-0.1,0.1-0.1
									c0,0-0.1,0-0.1,0c0,0,0-0.1,0.1-0.1c0,0,0.1,0,0.1,0l0.3,0.2c0,0,0.1,0,0.1,0.1C52.6,51.8,52.6,51.9,52.6,51.9z M52.8,51.6
									c-0.1,0-0.2-0.2-0.2-0.3c0.1,0,0.3,0.1,0.4,0.2C52.8,51.6,52.9,51.7,52.8,51.6z"/>
								<path id="Fill-31" class="st1" d="M74.4,59.8C74.4,59.8,74.4,59.7,74.4,59.8c0.1-0.1,0.1-0.2,0.1-0.3
									c-0.1,0.1-0.3,0.2-0.3,0c0,0,0-0.1-0.2-0.1c-0.3,0-0.7,0-1.3-0.1c0,0-0.1,0,0,0c0.8-0.1,1.8-0.1,1.8-0.5
									c0-0.3-0.4-0.5-1.5-0.5c-1.1,0-4.4,0.4-4.4-0.2c0-0.4,1.1-0.2,2-0.2c0,0.1,0.1,0.1,0.2,0.2c1.4,0.4,3-0.6,3.8-0.4
									c-1.1-0.4-1.8,0.3-2.8,0c0.6,0,1.3-0.1,1.3-0.3c-0.5,0.3-1.8-0.2-2.4,0.1c0,0-0.1,0-0.1,0.1c-1,0-2.3-0.1-2.3,0.5
									c0,1.1,3.8,0.4,4.7,0.4s1.1,0.1,1.1,0.3c0,0.3-0.9,0.3-1.4,0.3c-0.8,0-4.4-0.5-5.8,0c0.1-0.2,0.4-0.6,0.3-0.8
									c0.1,0,0.2-0.2,0.2-0.3c-0.1-0.1-0.2-0.1-0.3-0.1c0-0.1,0-0.1-0.1-0.2c0,0,0-0.2-0.1-0.2c-0.1,0-0.2-0.1-0.3-0.2
									c-0.2-0.1-0.3-0.1-0.3-0.1c-0.1,0-0.2,0-0.2,0c-0.1,0-0.2,0-0.2,0.1c-0.1-0.1-0.2-0.1-0.3-0.1c0,0.1-0.1,0.2,0,0.4
									c-0.1,0-0.3,0.3-0.4,0.3c0,0.1,0.1,0.1,0.1,0.1c-0.1,0.2-0.2,0.4-0.3,0.4c0.1,0.1,0.1,0.2,0.2,0.2c0,0.1,0,0.2,0,0.3
									l-0.2-0.1c-0.1,0-0.2,0-0.2,0c0,0-0.1,0-0.2,0c-0.2,0-0.3-0.3-0.6-0.5C64,58.1,64,58,64,57.8c0-0.2,0.1-0.3,0.1-0.5
									c0,0,0-0.1-0.1-0.2c0-0.1-0.2-0.2-0.3-0.2c0.1,0,0.1,0.1,0.1,0.2c0,0-0.1,0.1-0.1,0.1c-0.1,0.1-0.1,0.1,0,0.2c0,0,0,0,0,0
									c0,0,0,0.1,0,0.1c0,0,0,0,0,0c0-0.1-0.1-0.3-0.2-0.3c0,0-0.1,0-0.1,0c0,0,0,0,0,0c0-0.1-0.1-0.2-0.3-0.1c0,0,0.1,0,0.1,0.1
									c0,0,0,0.1,0,0.1c0,0.1,0.1,0.2,0.2,0.2c0,0,0,0,0.1,0c0,0,0,0,0,0c0,0,0,0,0,0c-0.3-0.1-0.3,0-0.4,0.1c0,0,0,0.1,0,0.1
									c-0.1,0-0.1,0.2,0.1,0.3c0,0,0-0.1,0-0.1c0,0,0,0,0,0c0,0,0.1,0.1,0.1,0.1c0,0,0,0,0.1,0c0,0,0,0,0,0c0,0,0,0,0.1,0
									c0,0,0,0,0,0c-0.2,0.2-0.1,0.3,0.1,0.4c0,0,0,0,0,0c0,0.3-0.4,0.3-0.4,0c-0.2,0.3,0.2,0.6,0.5,0.4c0,0,0,0,0,0
									c0,0,0.1,0.1,0.1,0.1c0,0,0-0.1,0.1-0.1c0,0,0,0,0,0c0,0.1,0,0.2,0.1,0.2c0-0.1,0-0.1,0-0.1c0.1,0,0.3,0.4,0.7,0.7
									c0,0,0.2-0.1,0.3-0.2c0,0.1,0.1,0.2,0.2,0.2l0.1,0c0,0.2,0.2,0.4,0.2,0.4c-0.1,0-0.5,0-0.6,0c-0.2,0.1-0.7,0.3-0.9,0.1
									c0-0.1,0-0.1-0.1-0.3c0-0.1-0.1-0.1-0.2-0.1h-0.1c-0.1-0.1-0.3-0.1-0.3,0c0.1,0,0.1,0,0.2,0.1c0,0,0,0.1-0.1,0.1
									c0,0.1,0,0.2,0.3,0.3c0,0,0,0,0,0c0,0-0.1,0-0.2,0c-0.1-0.1-0.1-0.2-0.3-0.1c0,0-0.1,0-0.1,0c0,0,0,0,0,0
									c-0.1,0-0.3,0.2-0.3,0.3c0,0,0.1-0.1,0.2-0.1c0,0,0,0.1,0,0.1c0,0.2,0.1,0.3,0.4,0.1c0,0,0,0,0,0c-0.1,0.1-0.3,0.3-0.1,0.4
									c0,0,0,0,0.1,0.1c0,0,0,0,0,0c0,0.2,0.2,0.3,0.3,0.3c0,0-0.1-0.2-0.1-0.3c0,0,0.1,0,0.1,0c0.2-0.1,0.1-0.3,0.2-0.3
									c0,0,0,0,0,0c0,0.1,0,0.3,0.2,0.2c0.2,0,0.3-0.2,0.3-0.3c0,0,0,0,0,0c0.1,0,0.1,0.1,0.1,0.2c0,0,0.1-0.1,0.1-0.1
									c0,0.1,0,0.2-0.1,0.3c0.1,0,0.3-0.1,0.3-0.3c0,0,0.1,0.1,0.1,0.1c0,0,0,0,0,0c0.1,0,0.2,0,0.4,0c0,0,0,0,0,0
									c0,0.1,0,0.2,0,0.2c0,0,0-0.1,0.1-0.1c0,0,0,0.2,0.1,0.3c0-0.5,0.3-0.3,0.6-0.5c0,0,0,0,0,0c0,0.1-0.1,0.1-0.1,0.2
									c0.1,0.1,0.6-0.2,0.6-0.4c0,0,0.2-0.1,0.3-0.1c0.3,0,0.3-0.2,0.4-0.2c1.8,0.2,0.8-0.8,2.8-0.6c0.1,0,0.2-0.1,0.2-0.2
									c-0.1,0.2-0.1,0.6,0.1,0.6c0.1,0,0.3,0.1,0.4,0.1c0,0,0,0,0,0c-0.1,0-0.3,0.1-0.3,0.1c-0.3,0.2-0.3-0.5-0.7-0.4
									c0,0-0.1,0-0.1,0.1c-0.1,0-0.3,0.2-0.3,0.3c0,0,0.1-0.1,0.2-0.1c0,0,0,0.1,0,0.1c0,0,0,0.1,0.1,0.1c0.1,0,0.1,0,0.1,0
									c0,0,0,0,0,0c0,0.1-0.4-0.1-0.4,0.3c0,0,0,0.1,0.1,0.1c0,0.1,0.1,0.2,0.3,0.2c0,0-0.1-0.1-0.1-0.1c0,0,0.1,0,0.1,0
									c0,0,0,0,0-0.1c0,0,0,0,0,0c0,0,0,0,0,0c0,0,0,0,0,0.1c0,0,0,0.1,0,0.1c0,0.1,0.2,0.3,0.4,0.1c-0.1,0-0.2,0-0.2-0.1
									c0,0,0.1,0,0.1,0c0,0,0-0.1,0-0.1c0,0,0,0,0,0h0.1c0,0,0.1,0,0.1,0c0,0.1,0.1,0.2,0.3,0.1c0.2-0.1,0-0.3,0.2-0.3h0.1
									c0.2,0.1,0.5,0.1,0.5,0c0.1-0.1,0-0.4-0.2-0.5c-0.1,0,0-0.2-0.1-0.3c0.2,0.1,0.4,0.2,0.7,0.2c0.5,0,0.6-0.1,0.9-0.2
									c0.3-0.2,0.5-0.1,0.6-0.1c0.1,0,0.1,0,0.1,0.1c-0.1,0.3,0,0.3-0.1,0.4c-0.1,0.1-0.3,0-0.4,0c-0.1,0-0.1,0-0.1,0.1
									c-0.1,0-0.3,0.1-0.3,0.3c0,0,0.1-0.1,0.2-0.1v0.1c0,0.2,0.2,0.2,0.3,0.1c0,0,0.1,0,0,0c-0.1,0.1-0.3,0.2-0.2,0.3
									c0,0,0.1,0,0.1,0c0,0.1,0,0.2,0.1,0.2c0,0,0-0.1,0-0.2h0.1c0.1,0,0.1-0.2,0.2-0.3c0,0,0,0,0,0c0,0.1-0.1,0.3,0,0.3
									c0,0,0,0,0.1,0c0,0.1,0.1,0.2,0.3,0.1c0,0-0.1-0.1-0.1-0.1c0,0,0.1-0.1,0.1-0.1c0.1-0.3-0.1-0.3-0.1-0.4
									c0-0.1,0.3,0,0.3-0.3c0,0,0-0.1-0.1-0.2c0,0,0,0,0,0h0.1c0,0,0.1,0,0.1-0.1C74.3,60,74.4,59.9,74.4,59.8z M66.3,57.7
									c0,0.1-0.2,0.2-0.3,0.1c-0.1-0.1,0-0.1-0.1-0.3C66.1,57.5,66.3,57.6,66.3,57.7z M66.6,58.3c0,0,0-0.1-0.1-0.1
									c-0.1,0-0.1,0.1,0,0.1c-0.1,0-0.2-0.1-0.2,0c0,0.1,0,0.1,0,0.2c0,0,0,0.1,0,0.2c0,0.1-0.1,0.2-0.3,0.1
									c-0.1-0.1-0.1-0.2-0.1-0.3c0-0.1,0.1-0.1,0.1-0.1c0.1,0,0.1,0,0.1-0.1c0-0.1,0-0.1-0.1-0.2c0.1,0,0.1,0,0.1-0.1
									c-0.1,0-0.1,0-0.2,0c0,0,0-0.1,0.1-0.1c0,0,0.1,0,0.1,0l0.3,0.2c0,0,0.1,0,0.1,0.1C66.6,58.2,66.6,58.3,66.6,58.3z
									 M66.7,58.1c-0.1,0-0.2-0.2-0.1-0.3c0.1,0,0.3,0.1,0.4,0.2C66.8,58,66.9,58.1,66.7,58.1z"/>
								<path id="Fill-32" class="st1" d="M69.6,62c0,0.1,0.1,0.1,0.3,0.2c1.3,0.4,2.9-0.6,3.7-0.4c-1-0.4-1.7,0.3-2.7,0
									c0.6,0,1.2-0.1,1.2-0.3c-0.4,0.3-1.8-0.2-2.3,0.1c0,0-0.1,0-0.1,0.1c-0.5,0-1.3,0-1.3,0.5c0,1,2.8,0.4,3.6,0.4
									c0.7,0,0.8,0.1,0.8,0.3c0,0.2-1,0.3-1.5,0.3c-0.8,0-3-0.4-4.4-0.1c0.1-0.2,0.4-0.5,0.2-0.7c0.1,0,0.2-0.2,0.2-0.3
									c-0.1-0.1-0.2-0.1-0.3-0.1c0-0.1,0-0.1-0.1-0.2c0,0,0-0.2-0.1-0.2c-0.1,0-0.1-0.1-0.3-0.2c-0.2-0.1-0.2-0.1-0.3-0.1
									c0,0-0.2,0-0.2,0c-0.1,0-0.2,0-0.2,0.1c-0.1-0.1-0.2-0.1-0.2-0.1c-0.1,0.1-0.1,0.2,0,0.4c-0.1,0-0.3,0.3-0.4,0.3
									c0,0.1,0.1,0.1,0.1,0.1c-0.1,0.2-0.1,0.4-0.3,0.4c0,0,0.1,0.1,0.1,0.1c0,0.1-0.1,0.3-0.1,0.4l-0.1,0c0,0,0,0-0.1,0
									c-0.2,0-0.3,0-0.5-0.2c-0.2-0.1-0.2-0.2-0.2-0.4c0-0.2,0.1-0.3,0.1-0.5c0,0,0-0.1,0-0.2c0-0.1-0.2-0.2-0.3-0.2
									c0,0,0.1,0.1,0.1,0.2c0,0-0.1,0.1-0.1,0.1c0,0,0,0.1,0,0.2c0,0,0,0,0,0c0,0,0,0,0,0.1c0,0,0,0,0,0c0-0.1-0.1-0.3-0.2-0.3
									h-0.1c0,0,0,0,0,0c0-0.1-0.1-0.2-0.3-0.1c0,0,0.1,0,0.1,0c0,0,0,0.1,0,0.1c0,0.1,0.1,0.2,0.2,0.2c0,0,0,0,0,0c0,0,0,0,0,0.1
									c0,0,0,0,0,0c-0.2-0.1-0.3,0-0.3,0.1c0,0,0,0.1,0,0.1c-0.1,0.1-0.1,0.2,0.1,0.3c0,0,0-0.1,0-0.1c0,0,0,0,0,0
									c0,0,0.1,0,0.1,0.1c0,0,0.1,0,0.1-0.1h0.1c0,0,0,0,0.1,0c0,0,0,0,0,0C63.8,62.8,63.8,63,64,63c0,0,0,0,0,0
									c0,0.3-0.4,0.2-0.4,0c-0.2,0.3,0.2,0.6,0.5,0.4c0,0,0,0,0,0c0,0.1,0,0.1,0.1,0.1c0,0,0-0.1,0.1-0.1c0,0,0,0,0,0
									c0,0.1,0,0.2,0.1,0.2c0,0,0-0.1,0-0.1c0,0,0-0.1,0.4,0.1c0,0.1,0.1,0.1,0.1,0.1l0.3,0c0,0.2,0,0.5,0,0.5c-0.1,0-0.5,0-0.6,0
									c-0.2,0.1-0.7,0.3-0.8,0.1c-0.1-0.1,0-0.1-0.1-0.2c0-0.1-0.1-0.1-0.1-0.1h-0.1c-0.1-0.1-0.3-0.1-0.3,0c0.1,0,0.1,0,0.2,0.1
									c0,0,0,0.1,0,0.1c0,0.1,0,0.2,0.3,0.3c0,0,0,0,0,0c0,0-0.1,0-0.2,0c-0.1-0.1-0.1-0.2-0.3-0.2c0,0,0,0-0.1,0.1c0,0,0,0,0,0
									c-0.1,0-0.3,0.2-0.3,0.3c0,0,0.1-0.1,0.2-0.1c0,0,0,0.1,0,0.1c0,0.2,0.1,0.3,0.4,0.1c0,0,0,0,0,0c-0.1,0.1-0.3,0.3-0.1,0.4
									c0,0,0,0,0.1,0c0,0,0,0,0,0c0,0.2,0.2,0.3,0.3,0.3c0,0-0.1-0.1-0.1-0.3c0,0,0.1,0,0.1,0c0.1-0.1,0.1-0.3,0.2-0.3
									c0,0,0,0,0.1,0c0,0.1,0,0.2,0.2,0.2c0.2,0,0.3-0.2,0.2-0.3c0,0,0,0,0,0c0,0,0.1,0.1,0.1,0.2c0,0,0.1-0.1,0.1-0.1
									c0,0.1,0,0.2-0.1,0.3c0.1,0,0.3-0.1,0.3-0.3c0,0,0,0.1,0.1,0.1c0,0,0,0,0,0c0.1,0,0.2,0,0.4,0c0,0,0,0,0,0
									c0,0.1,0,0.1,0,0.2c0,0,0.1-0.1,0.1-0.1c0,0,0,0.2,0.1,0.3c0-0.4,0.4-0.3,0.7-0.5c0,0,0,0,0,0c0,0,0,0.1-0.1,0.1
									c0.3,0.2,0.6-0.2,0.7-0.5c0,0,0.1-0.1,0.1-0.1c0,0,0,0.1,0,0.1c0.3,0,0.3-0.2,0.4-0.2c0.9,0.1,0.2-0.7,1.7-0.5
									c0.1,0,0.3-0.1,0.4-0.2c-0.1,0.2-0.1,0.6,0.1,0.6c0.1,0,0.3,0.1,0.3,0.1c0,0,0,0,0,0c-0.1,0-0.2,0-0.3,0.1
									c-0.3,0.2-0.3-0.5-0.6-0.3c0,0-0.1,0-0.1,0.1c-0.1,0-0.3,0.2-0.3,0.3c0,0,0.1-0.1,0.2-0.1c0,0,0,0.1,0,0.1
									c0,0.1,0,0.1,0.1,0.1c0.1,0,0.1,0,0.1,0c0,0,0,0,0,0c0,0.1-0.4-0.1-0.3,0.3c0,0,0,0.1,0.1,0.1c0,0.1,0.1,0.2,0.3,0.1
									c0,0-0.1-0.1-0.1-0.1c0,0,0.1,0,0.1,0c0,0,0,0,0,0c0,0,0,0,0,0s0,0,0,0c0,0,0,0,0,0.1c0,0,0,0.1,0,0.1
									c0,0.1,0.2,0.3,0.4,0.1c-0.1,0-0.2,0-0.2-0.1c0,0,0.1,0,0.1,0c0,0,0-0.1,0-0.1c0,0,0,0,0,0h0.1c0,0,0,0,0.1,0
									c0,0.1,0.1,0.1,0.3,0.1c0.2-0.1,0-0.3,0.2-0.3c0,0,0.1,0,0.1,0c0.2,0,0.4,0,0.5,0c0-0.1,0-0.4-0.2-0.5
									c-0.1-0.1,0-0.2-0.1-0.3c0.2,0.1,0.4,0.2,0.6,0.2c0.5,0,0.7-0.1,0.9-0.2c0.3-0.1,0.5-0.1,0.6,0c0,0,0.1,0,0,0.1
									c-0.1,0.2,0,0.3-0.1,0.4c-0.1,0.1-0.3,0-0.4,0c-0.1,0-0.2,0-0.2,0.1c-0.1,0-0.3,0.1-0.3,0.3c0,0,0.2-0.1,0.3-0.1
									c0,0,0,0.1,0,0.1c0,0.2,0.1,0.2,0.3,0.1c0,0,0.1,0,0,0c-0.1,0.1-0.3,0.2-0.2,0.3c0,0,0,0,0.1,0c0,0.1,0,0.2,0.1,0.2
									c0-0.1,0-0.1,0.1-0.2c0,0,0.1,0,0.1,0c0.1,0,0.1-0.2,0.2-0.3c0,0,0,0,0,0c-0.1,0.1-0.1,0.3,0,0.3c0,0,0,0,0.1,0
									c0,0.1,0.1,0.2,0.3,0.1c0,0-0.1,0-0.1-0.1c0,0,0.1-0.1,0.1-0.1c0.1-0.3-0.1-0.3,0-0.4c0-0.1,0.3,0,0.3-0.3
									c0,0,0-0.1-0.1-0.2v0h0.1c0,0,0.1,0,0.1-0.1c-0.2,0-0.1-0.2-0.1-0.2c0,0,0,0,0,0c0.1,0,0.1-0.1,0.2-0.3
									c-0.1,0.1-0.3,0.2-0.3,0c0,0,0-0.1-0.2-0.1c-0.3,0-0.8,0-1.4-0.1c0,0-0.1,0,0,0c0.6,0,1.8-0.1,1.8-0.6
									c0-0.2-0.1-0.5-1.1-0.5c-1,0-3.4,0.4-3.4-0.2C68.6,61.9,69.3,62,69.6,62z M66.3,61.9c0,0.1-0.2,0.2-0.3,0.1
									c-0.1-0.1,0-0.1-0.1-0.3C66,61.8,66.2,61.9,66.3,61.9z M66.5,62.5c0,0,0-0.1-0.1-0.1c-0.1,0,0,0,0,0.1c-0.1,0-0.2-0.1-0.2,0
									c0,0.1,0,0.1,0,0.2c0,0,0,0.1,0,0.2c0,0.1-0.1,0.2-0.2,0.1c-0.1-0.1-0.1-0.2-0.1-0.3c0-0.1,0.1-0.1,0.1-0.1
									c0.1,0,0.1,0,0.1-0.1c0-0.1,0-0.1-0.1-0.2c0.1,0,0.1,0,0.1-0.1c-0.1-0.1-0.1,0-0.1,0c0,0,0-0.1,0.1-0.1c0,0,0.1,0,0.1,0
									l0.3,0.2c0,0,0.1,0,0.1,0.1C66.5,62.5,66.5,62.5,66.5,62.5z M66.7,62.3c-0.1,0-0.2-0.2-0.2-0.3c0,0,0.3,0.1,0.4,0.2
									C66.7,62.2,66.8,62.3,66.7,62.3z"/>
								<path id="Fill-33" class="st1" d="M70.4,66.8c-1,0.1-2.3,0.2-2.3-0.1c0-0.2,0.2-0.3,0.5-0.4c0,0.1,0.1,0.1,0.2,0.2
									c1.3,0.4,2.7-0.5,3.5-0.4c-1-0.3-1.6,0.3-2.6,0.1c0.6,0,1.2-0.1,1.2-0.3c-0.5,0.3-1.8-0.2-2.3,0.1c0,0-0.1,0.1-0.1,0.1
									c-0.4,0.1-0.8,0.3-0.8,0.6c0,0.4,0.5,0.5,1.4,0.5c0.9,0,2-0.1,2,0c0,0.2-0.7,0.4-1.5,0.4c-0.7,0-1.9-0.4-3.3-0.1v0
									c0.1-0.3,0.4-0.6,0.3-0.8c0.1,0,0.2-0.1,0.2-0.2c-0.1-0.1-0.2-0.1-0.2-0.1c0-0.1,0-0.1-0.1-0.2c0,0,0-0.2-0.1-0.2
									c0,0-0.1-0.1-0.3-0.2c-0.1-0.1-0.2-0.1-0.3-0.1c0,0-0.2,0-0.2,0c-0.1,0-0.1,0-0.2,0.1c-0.1-0.1-0.1-0.1-0.2-0.1
									c0,0.1-0.1,0.2,0,0.3c-0.1,0-0.2,0.3-0.4,0.3c0,0.1,0.1,0.1,0.1,0.1c-0.1,0.2-0.1,0.4-0.3,0.4c0,0.1,0.1,0.1,0.1,0.1
									c-0.1,0.3-0.1,0.6-0.1,0.8c-0.2-0.2-0.5-0.7-0.7-0.8C64,66.8,64,66.7,64,66.6c0-0.2,0.1-0.3,0.1-0.5c0,0,0-0.1,0-0.1
									c0-0.1-0.2-0.2-0.3-0.2c0,0,0.1,0.1,0.1,0.2c0,0-0.1,0.1-0.1,0.1c0,0,0,0.1,0,0.2v0.1c0,0,0,0,0,0c0-0.1-0.1-0.3-0.2-0.3
									c0,0-0.1,0-0.1,0c0,0,0,0,0,0c0-0.1-0.1-0.2-0.3-0.1c0,0,0.1,0,0.1,0c0,0,0,0.1,0,0.1c0,0.1,0.1,0.2,0.2,0.2c0,0,0,0,0,0
									s0,0,0,0c0,0,0,0,0,0c-0.2-0.1-0.3,0-0.3,0.1c0,0,0,0.1,0,0.1c-0.1,0-0.1,0.2,0,0.3c0-0.1,0-0.1,0-0.1c0,0,0,0,0,0
									c0,0,0.1,0,0.1,0.1c0,0,0.1,0,0.1,0c0,0,0,0,0,0c0,0,0,0,0.1,0c0,0,0,0,0,0c-0.2,0.1-0.1,0.3,0.1,0.3c0,0,0,0,0,0
									c0,0.3-0.4,0.2-0.4-0.1c-0.2,0.3,0.2,0.6,0.4,0.4c0,0,0,0,0,0c0,0,0,0.1,0.1,0.1c0,0,0,0,0.1,0c0,0,0,0,0,0
									c0,0.1,0,0.2,0.1,0.2c0-0.1,0-0.1,0-0.1c0,0,0,0.4,0.4,0.6c0.1,0.2,0.3,0.4,0.5,0.3c0.1,0.2,0.2,0.3,0.1,0.3
									c-0.1,0-0.5-0.1-0.7,0c-0.1,0-0.2,0.1-0.4,0.1c0,0-0.1,0-0.1,0c-0.1,0-0.3,0-0.3-0.1c0-0.1,0-0.1-0.1-0.2
									c0-0.1-0.1-0.1-0.1-0.1h-0.1c-0.1-0.1-0.2-0.1-0.3,0c0.1,0,0.1,0,0.2,0.1c0,0,0,0.1,0,0.1c0,0,0,0.1,0.3,0.3c0,0,0,0,0,0
									c0,0-0.1,0-0.2,0c-0.1-0.1-0.1-0.2-0.3-0.1c0,0-0.1,0-0.1,0c0,0,0,0,0,0c-0.1,0-0.3,0.2-0.2,0.3c0,0,0.1-0.1,0.2-0.1
									c0,0,0,0.1,0,0.1c0,0.2,0.1,0.3,0.4,0.1c0,0,0,0,0,0c-0.1,0.1-0.3,0.2-0.1,0.3c0,0,0,0,0.1,0.1c0,0,0,0,0,0
									c0,0.2,0.1,0.3,0.2,0.3c0,0-0.1-0.1-0.1-0.2c0,0,0.1,0,0.1,0c0.1-0.1,0.1-0.2,0.1-0.3c0,0,0,0,0,0c0,0.1,0,0.2,0.2,0.2
									c0.2,0,0.2-0.2,0.2-0.2c0,0,0,0,0,0c0.1,0,0.1,0.1,0.1,0.2c0,0,0.1-0.1,0.1-0.1c0,0.1,0,0.2-0.1,0.3c0.1,0,0.2-0.1,0.3-0.3
									c0,0,0,0.1,0.1,0.1c0,0,0,0,0,0c0.1,0,0.2,0,0.3,0c0,0,0,0,0,0c0,0.1,0,0.1,0,0.2c0,0,0-0.1,0.1-0.1c0,0,0,0.2,0.1,0.3
									c0-0.4,0.3-0.3,0.5-0.4c0,0,0,0,0,0c0,0-0.1,0.1-0.1,0.1c0.1,0,0.4-0.1,0.4-0.3c0,0,0.2-0.2,0.3-0.7h0.1
									c0.4,0,0.5-0.3,0.9-0.3c-0.1,0.1-0.1,0.3-0.1,0.5c0,0.2,0.3,0.4,0.3,0.5c0,0,0,0,0,0c-0.1,0-0.2,0-0.3,0.1
									C67,69.6,67,69,66.6,69.1c0,0-0.1,0-0.1,0.1c-0.1,0-0.3,0.1-0.3,0.3c0,0,0.1-0.1,0.2-0.1v0.1c0,0,0,0.1,0.1,0.1
									c0.1,0,0.1,0,0.1,0c0,0,0,0,0,0c0,0.1-0.4-0.1-0.3,0.2c0,0,0,0.1,0.1,0.1c0,0.1,0.1,0.2,0.2,0.1c0,0-0.1-0.1-0.1-0.1
									c0,0,0.1,0,0.1,0c0,0,0,0,0,0c0,0,0,0,0,0c0,0,0,0,0,0c0,0,0,0,0,0.1c0,0,0,0.1,0,0.1c0,0.1,0.2,0.2,0.3,0.1
									c0,0-0.2,0-0.2-0.1c0,0,0.1,0,0.1,0c0,0,0-0.1,0-0.1c0,0,0,0,0,0h0.1c0,0,0.1,0,0.1,0c0,0.1,0.1,0.1,0.2,0.1
									c0.2-0.1,0-0.3,0.2-0.3c0,0,0.1,0,0.1,0c0.2,0,0.3,0.1,0.3,0c0-0.1,0-0.4-0.2-0.5c-0.1-0.1,0.2-0.7-0.3-1
									c0.2,0.1,1,0.2,1.1,0c0.2,0,0.5,0.2,0.5,0.3c0,0,0,0.1,0,0.1c-0.2,0.1-0.2,0.2-0.3,0.2l0,0c-0.1-0.1-0.1-0.2-0.2-0.2
									c-0.1,0-0.1,0-0.1,0c-0.1,0-0.3,0-0.3,0.1c0,0,0.1,0,0.2,0c0,0,0,0,0,0c0,0,0,0.1,0,0.1h0l0,0c0,0,0,0,0,0
									c-0.1,0-0.3,0-0.3,0.1c0,0,0,0.1,0,0.1c-0.1,0.1-0.1,0.2,0,0.2c0,0,0-0.1,0.1-0.1c0,0,0,0,0.1,0c0.1,0.1,0.2-0.1,0.3,0
									c0,0,0,0,0,0c-0.1,0-0.2,0.1-0.2,0.2c0,0,0,0,0,0.1c0,0.1,0,0.2,0.1,0.3c0,0,0-0.1,0-0.1c0,0,0.1,0,0.1,0
									c0.2-0.1,0.1-0.3,0.1-0.3c0.1-0.1,0.2,0.1,0.4,0c0,0,0.1-0.1,0-0.2l0,0c0,0,0.1,0.1,0.2,0.1c-0.1-0.1,0-0.2,0.1-0.3
									c0,0,0,0,0,0c0.1,0,0.2,0,0.2-0.1c-0.1,0-0.3-0.1-0.2-0.2c0.2-0.1,0.3-0.2,0.2-0.3c-0.2-0.2-0.5-0.2-0.6-0.5
									c0.2,0,0.3,0,0.3,0c1.2,0,1.9-0.3,1.9-0.7C71.6,66.8,71.3,66.7,70.4,66.8z M65.9,66.2c-0.1,0.1-0.2,0.2-0.2,0.1
									c-0.1-0.1,0-0.1-0.1-0.3C65.6,66.1,65.8,66.2,65.9,66.2z M66.1,66.8c0,0,0-0.1-0.1-0.1C65.9,66.7,65.9,66.7,66.1,66.8
									c-0.2,0-0.3-0.1-0.3,0c0,0.1,0,0.1,0,0.2c0,0,0,0.1,0,0.2c0,0.1-0.1,0.2-0.2,0.1c-0.1-0.1-0.1-0.2-0.1-0.3
									c0-0.1,0.1-0.1,0.1-0.1c0.1,0,0.1,0,0.1-0.1c0-0.1,0-0.1-0.1-0.2c0.1,0,0.1,0,0.1-0.1c0,0-0.1,0-0.1,0c0,0,0-0.1,0-0.1
									c0,0,0.1,0,0.1,0l0.3,0.1c0,0,0.1,0,0.1,0.1C66.1,66.7,66.1,66.8,66.1,66.8z M66.2,66.6c-0.1,0-0.1-0.2-0.1-0.3
									c0,0,0.3,0.1,0.4,0.2C66.3,66.5,66.3,66.6,66.2,66.6z"/>
								<path id="Fill-34" class="st1" d="M45.5,56.5c0.1-0.8-1.1-1.6-1.2-2.7c-0.2-1.1,0-2.2-1.3-3.7c-1.3-1.5-5.5-6.1-6.9-7.6
									c0.3,0,0.7,0,1.6,0.8c0.5,0.5,1.8,1.7,2.7,2.6c1.1-2.9,2.8-5.6,4.9-7.9c0.4-0.4,0.8-0.8,1.1-1.2c-0.9,0.2-1.9,0.6-2.7,1.2
									c0-1.3-0.3-2.5-1.3-3.3c0.4-1.8,0.1-4-4-6.6c2.1,0.5,3.3,2.4,4.9,0.9c-1.4,0-1.5-3.1-6.7-5.7c2,0,3.5,3.1,5.8,1.3
									c-2.2-0.3-2.9-4-6.8-5.2c1.3,0.1,2.7,0.8,3.9-0.8c-1.3,0.3-2.1-0.9-3.6-1c0.5-1.7,0.4-2.7-0.2-3.9c-1,0.1-2.1,0.4-2.8,1
									c-0.1-0.9-1.1-1-1.9-0.9c0,0.4,0.2,1-0.2,1c-0.7,0.1-3,0.8-4.8,1.4c-1.8,0.7-3.8,1.9-4.4,2.3c-0.4,0.2-0.7-0.3-0.9-0.6
									c-0.6,0.5-1.2,1.2-0.8,1.9c-1,0.1-2.1,0.3-3,1.1c0,1.1,1,2.2,2.4,2.9c-2.4,2.3-0.2,4.5-2.3,6.6c3,0.1,2.5-4,4-4.5
									c-0.2,2.9-1.8,3.4-1.8,6.5c0,1.7,1,3.4,0.1,4.5c2.5-0.7,1.8-6.1,3.4-7.7c0.3,0.9,0.1,1.8-0.2,2.8c-0.9,2.5,0.1,6-1.3,7.1
									c2.2-0.2,2.7-3.3,4.2-5.1c-1.6,4.1-3.3,11.2-5.6,14.5C15.5,54.2,12.9,61.2,9,61.2c-1.8,0-3.1-1.1-3.1-3.2
									c0-6.5,11.4-11,11.4-18c0-3.1-2.6-4.3-4.2-4.3c-1.1,0-2.4,0.5-3.5,1.4c-0.5-0.2-0.9-0.3-1.3-0.3c-4,0-3,7.1-6.5,7.1
									c1.4,0.8,3.8-0.7,5.2-2.7c-0.6,4.6-7.3,3.4-6.8,8.9c1-4.3,11.7-3.7,11.7-10.3c0-0.7-0.4-1.4-0.9-1.9
									c0.8-0.5,1.6-0.7,2.3-0.7c1.3,0,2.5,1,2.5,2.8c0,5.9-11.3,10.8-11.3,18c0,1.2,0.4,2.2,0.9,3c-0.8,0.3-1.6,0.2-2.3-0.6
									c-0.1,1.8,2.6,3,4.3,2.1c0.4,0.1,0.8,0.2,1.2,0.2c-0.5,1.4-2.2,1.8-3.1,1.7c2.8,2.1,7.6-0.7,7.3-3.1
									c2.2-1.8,3.6-4.8,5.2-6.7c-0.1,0.5-0.2,0.9-0.3,1.4c-1.6,2.9-3.1,5.5-3.6,9.4c-0.4,3.2-2,6.1-4.3,6.1
									c-0.5,0-1.3-0.6-1.7-0.3c-0.7,0.6,0,1.2,0,1.8c0,0.9-1.8,1.8-1.8,4.6c0,1.3,0.8,2.8,0.5,3.6c0.7-0.4,1.7-1.6,2.1-3.1
									c0.8,3.7-1.6,3.6,0.1,6.9c0.2-1.1,1.3-1.5,2-1.1c0.7,0.5,0.4,0.8-0.1,1.3c-0.5,0.5-1,3,1.3,2.8c-0.4-0.3-0.5-0.9,0.7-1.2
									c1.6-0.3,2,0.4,3.7,0.4c1,0,1.3-1.3,2.1-1.3c0.8,0,0.8,0.6,0.5,1.1c1.3-0.4,1.6-1.1,1.6-1.8c0-0.7-0.6-1.2-0.1-1.5
									c0.5-0.3,2,0,1.4,1.3c0.8-0.1,1.2-0.7,1.2-1.7c0-1-1.1-1.5-2.1-1.3C20.9,81.3,20,81,19.2,81c-1.9,0-1.6,1.4-2.8,1.4
									c-2,0-4-2.6-4-7c0-2.4,2.6-3,4.4-3.7c1.8-0.8,5-2.7,6.9-5.9c1.5-2.5,1.6-5.2,1.4-8.4c2.6,1.5,2.9,3.5,2.9,5.1
									c0,2-1,2.8-1.8,3.1c-0.7,0.3-0.9,0.2-1,0.6c-0.1,0.5,0.3,0.8,0.5,1c0.9,0.5,0.7,1.3,1,2.3c0.3,1,1.1,2.4,2.6,3.5
									c0.1-0.6,0.1-1.5,0-2.8c2,1,0.4,4.9,4.2,4.9c-0.7-0.4-0.5-1.4-0.1-1.6c0.4-0.1,0.9,0.3,1.7,1.3c0.7,1,0.5,0.9,2.4,0.9
									c1.8,0,1-0.6,2-0.6c1,0,0.9,1.1,0.4,1.9c1.6-0.5,2.1-1.7,1.6-2.9c1.4-0.8,2.2,0.3,2.4,1.1c1.4-1.4,0-3.1-1.1-3.2
									c0-0.5-0.4-1.1-1-1.1c-0.6,0-1.2-0.1-1.8,0c-0.7,0-1,1-1.8,1c-2.4,0-7.1-4.3-7.1-6.1s4.5-3,4.5-5.9c0-3.8-3.8-5-6.9-7.5
									c1.1-1.2,4.4-1.5,6.3-0.6c0.2-1,0.9-0.8,1.1-2.6c0.7,1.6-0.2,2.9,0.5,3.6C36.7,51.9,38,52,38,50c0.4,1.2-0.5,3.1,0.4,4
									c0.2-1,0.8-1.2,1.2-1.2s0.7,0.3,0.7,0.9c0,1.5-1.8,1.1-1.8,2.8c0,0.7,0.9,1,0.9,1.4c0,0.5-0.8,1.2-1.7,0.6
									c0.3,0.7,0.9,1.2,1.7,1.2c0.8,0,1.7-0.7,2.1-1.5c0.4,1.1,0.1,2.3-0.7,2.4c0.8,0.4,2.8,0,2.6-2.5c1.1,0.2,1.7,0.9,1,2.3
									c0.9-0.2,1.8-0.7,1.8-1.6C46.1,58,45.4,57.5,45.5,56.5z M24.3,22.7c-1,0.1-1-0.9-2.8-1.3c1.3-0.3,2.9-0.9,4.4-1.4
									C26.1,21.1,25.6,22.6,24.3,22.7z M31.7,30.4c-1.3,0.6-2.4-0.6-2.6-1.4c-0.3-0.8-0.5-1.4-0.2-1.7c0.6-0.6,0.8-1,0.4-1.7
									c-0.4-0.8-1.3-0.4-2.2-0.2c0.4-0.8,0.5-1.3-0.1-1.3c-0.7,0.1-0.7,1.2-1.1,1.1c-0.4-0.1-0.2-0.8-0.2-1.1
									c0-0.5,0.3-0.6,0.8-0.9l3.9-1.4c0.5-0.2,0.8-0.3,1.2,0.1c0.3,0.2,0.9,0.6,0.7,0.9c-0.2,0.4-1-0.4-1.5,0
									c-0.5,0.4-0.1,0.7,0.8,1c-0.8,0.5-1.7,0.8-1.4,1.7c0.2,0.7,0.7,0.9,1.5,0.9c0.4,0,0.8,0.6,1.1,1.4
									C33,28.4,33.1,29.8,31.7,30.4z M31.9,19.8c-1,0.8-2.4,0.1-3-1c1.4-0.6,3.1-1.2,4.2-1.9C32,18.4,32.7,19.1,31.9,19.8z"/>
								<path id="Fill-35" class="st1" d="M18.9,13.8c0-0.4-0.3-0.7-0.7-0.7c-0.4,0-0.7,0.3-0.7,0.7c0,0.4,0.3,0.7,0.7,0.7
									C18.6,14.5,18.9,14.2,18.9,13.8L18.9,13.8z"/>
								<path id="Fill-36" class="st1" d="M18.7,11.8c0-0.4-0.3-0.7-0.7-0.7c-0.4,0-0.7,0.3-0.7,0.7c0,0.4,0.3,0.7,0.7,0.7
									C18.3,12.5,18.7,12.2,18.7,11.8L18.7,11.8z"/>
								<path id="Fill-37" class="st1" d="M19.1,10.9c0.4,0,0.7-0.3,0.7-0.7c0-0.4-0.3-0.7-0.7-0.7c-0.4,0-0.7,0.3-0.7,0.7
									C18.4,10.6,18.7,10.9,19.1,10.9L19.1,10.9z"/>
								<path id="Fill-38" class="st1" d="M21.1,10.8c0.4,0,0.7-0.3,0.7-0.7c0-0.4-0.3-0.7-0.7-0.7c-0.4,0-0.7,0.3-0.7,0.7
									C20.3,10.5,20.7,10.8,21.1,10.8L21.1,10.8z"/>
								<path id="Fill-39" class="st1" d="M29.5,9.5c0.3,0.3,0.8,0.3,1.1,0c0.3-0.3,0.3-0.7,0-1c-0.3-0.3-0.8-0.3-1.1,0
									C29.2,8.7,29.2,9.2,29.5,9.5L29.5,9.5z"/>
								<path id="Fill-40" class="st1" d="M29.3,7.9c0.3-0.3,0.3-0.7,0-1c-0.3-0.3-0.8-0.3-1,0c-0.3,0.3-0.3,0.7,0,1
									C28.6,8.2,29.1,8.2,29.3,7.9L29.3,7.9z"/>
								<path id="Fill-41" class="st1" d="M27.4,7.6c0.3-0.3,0.3-0.7,0-1c-0.3-0.3-0.8-0.3-1.1,0c-0.3,0.3-0.3,0.7,0,1
									C26.6,7.9,27.1,7.9,27.4,7.6L27.4,7.6z"/>
								<path id="Fill-42" class="st1" d="M25.7,8.8c0.3-0.3,0.3-0.7,0-1c-0.3-0.3-0.8-0.3-1.1,0c-0.3,0.3-0.3,0.7,0,1
									C24.9,9.1,25.4,9.1,25.7,8.8L25.7,8.8z"/>
								<path id="Fill-43" class="st1" d="M21,7.8l0.6,1.3l0.8-0.9c0,0,0.1,0,0.1,0c0.1,0.4,0.1,1.2,0.1,1.6c0,0.5,0.4,0.9,0.9,0.9
									c0.5,0,0.9-0.4,0.9-0.9c0-0.4-0.2-0.7-0.5-0.8c-0.4-0.3-0.8-0.7-1-1c0,0,0-0.1,0-0.1L24.1,8l-0.5-1.3l-0.9,0.8c0,0,0,0,0,0
									l-0.1-1.4l-1.3,0.5l0.9,1c0,0,0,0.1,0,0.1L21,7.8z"/>
								<path id="Fill-44" class="st1" d="M29.6,10.1c0.3,0.4,0.4,0.7,0.4,1c-0.2-0.1-0.5-0.3-0.8-0.7l0.2,1.7
									c0.2-0.3,0.4-0.5,0.6-0.6c-0.1,1.1-0.5,1.6-0.9,1.6c-0.5,0.1-0.8-0.2-0.9-0.6c-0.1-0.5,0.3-0.8,0.8-0.4c0.1-1-0.8-1-1.1-0.6
									c0.4-1,0.3-1.6-0.6-2.2c-0.6,0.9-0.3,1.5,0.4,2.2c-0.7-0.3-1.3,0.2-0.7,1c0.1-0.7,0.7-0.5,0.8,0c0.1,0.4-0.3,1-1.1,1.2
									c-1.1,0.3-1.4-0.4-1.7-0.9c0.2-0.1,0.8-0.1,1.4,0.3l-0.5-1.7c-0.2,0.6-0.6,0.8-1,1c0-0.5,0.3-1.5,0.3-1.5l-2,0.8
									c0,0,0.9,0.4,1.3,0.8c-0.4,0.2-0.8,0.2-1.4,0l0.8,1.5c0.2-0.7,0.5-1.1,0.8-1.2c0.2,0.6,0.4,1.3-0.5,1.8
									c-0.7,0.4-1.4,0.2-1.6-0.2c-0.3-0.5,0-1,0.6-0.6c-0.1-1-0.9-1-1.2-0.2c0-1-0.2-1.6-1.3-1.9c-0.3,1,0.1,1.6,1.1,2
									c-0.6-0.1-1.2,0.5-0.4,1.2c0-0.6,0.5-0.7,0.8-0.3c0.2,0.3,0.2,0.8-0.2,1c-0.3,0.2-1,0.2-1.8-0.6c0.2-0.1,0.5-0.1,0.9,0
									l-1.1-1.3c0.1,0.5,0,0.8-0.1,1c-0.2-0.3-0.3-0.5-0.4-1l-0.8,0.7c0.8,0.5,1.7,1.2,2.8,2.7c1.2-0.7,3.2-1.7,4.5-2.2
									c1.3-0.5,3.5-1.2,4.8-1.5c-0.3-1.8-0.2-3,0.1-3.9L29.6,10.1z"/>
								<path id="Fill-45" class="st1" d="M121.2,71.3c-1.8,0-3.2,1.4-3.2,3.2s1.4,3.2,3.2,3.2c1.8,0,3.2-1.4,3.2-3.2
									S123,71.3,121.2,71.3z M121.2,76.8c-1.3,0-2.4-1-2.4-2.3s1.1-2.3,2.4-2.3s2.4,1,2.4,2.3S122.5,76.8,121.2,76.8z"/>
								<path id="Fill-46" class="st1" d="M108.1,76.9c-0.7-0.1-1.5,0-2,0.4c-0.4,0.3-0.7,0.7-0.8,1.2c-0.1,0.5,0.1,1.1,0.5,1.6
									c0.4,0.4,1,0.7,1.6,0.9c0.6,0.1,1.3,0,1.8-0.3c0.6-0.3,0.9-0.8,1-1.3h0C110.4,78.3,109.5,77.2,108.1,76.9z M109.4,79.2
									c-0.1,0.7-1,1.1-1.9,0.9c-0.9-0.2-1.5-0.8-1.4-1.5c0-0.3,0.3-0.5,0.5-0.6c0.4-0.3,0.9-0.4,1.4-0.3c0.8,0.1,1.5,0.7,1.5,1.3
									C109.4,79.1,109.4,79.2,109.4,79.2z"/>
								<path id="Fill-47" class="st1" d="M91.4,33.1c-0.3-0.3-0.7-0.6-1.1-0.6c-0.6-0.1-1.3,0.1-1.8,0.5c-1,0.8-1.3,2-0.7,2.9
									s2,0.8,3,0.1c0.5-0.4,0.9-1,1-1.6C91.8,33.9,91.7,33.5,91.4,33.1z M90.9,34.3c0,0.4-0.3,0.8-0.7,1.1
									c-0.6,0.5-1.5,0.5-1.8,0.1c-0.1-0.2-0.2-0.3-0.2-0.5c0-0.4,0.2-0.9,0.7-1.2c0.4-0.3,0.8-0.4,1.2-0.4c0.2,0,0.4,0.1,0.6,0.3
									C91,33.9,91,34.1,90.9,34.3z"/>
								<path id="Fill-48" class="st1" d="M105.1,72.3c-0.4-0.5-0.9-0.8-1.5-0.8c-0.5,0-0.9,0.2-1.3,0.5c-0.5,0.5-0.8,1.1-0.8,1.9
									V74c0,0.7,0.3,1.4,0.7,1.9c0.4,0.4,0.8,0.6,1.3,0.6s1-0.2,1.3-0.5c0.5-0.5,0.8-1.1,0.8-1.9
									C105.7,73.4,105.5,72.8,105.1,72.3z M104.3,75.3c-0.2,0.1-0.4,0.3-0.7,0.3c-0.3,0-0.6-0.2-0.7-0.3c-0.3-0.3-0.5-0.8-0.5-1.3
									c0-0.5,0.2-1,0.5-1.3c0.2-0.2,0.4-0.3,0.7-0.3c0.7,0,1.2,0.8,1.2,1.7C104.8,74.5,104.6,75,104.3,75.3z"/>
								<path id="Fill-49" class="st1" d="M90.2,48.2c-0.2-0.6-0.7-1.2-1.4-1.5c-0.7-0.3-1.4-0.4-2.1-0.2c-0.5,0.2-0.9,0.5-1.1,0.9
									c-0.5,1,0.1,2.3,1.4,2.9c0.7,0.3,1.4,0.4,2.1,0.2c0.5-0.2,0.9-0.5,1.1-0.9C90.3,49.2,90.3,48.7,90.2,48.2z M89.4,49.3
									c-0.2,0.3-0.4,0.4-0.6,0.5c-0.4,0.1-1,0.1-1.4-0.1c-0.8-0.4-1.3-1.2-1-1.8c0.1-0.3,0.4-0.4,0.6-0.5c0.4-0.2,1-0.1,1.4,0.1
									c0.5,0.2,0.8,0.6,1,1C89.5,48.7,89.5,49,89.4,49.3z"/>
								<path id="Fill-50" class="st1" d="M126.4,50.1c-0.8-2.4-5.9-2.1-6.1-6.8c1,2.8,3.1,3.8,4.7,3.1c-3.5-0.4-0.7-6.3-5.2-6.3
									c-0.3,0-0.5,0-0.7,0.1c-0.8-0.8-1.6-1.1-3-1.1c-1.9,0-5.2,1.8-5.2,5.6c0,8.1,9.6,8.9,9.6,16c0,2.1-1.6,3.4-3.4,3.4
									c-1.6,0-2.9-1.8-4.3-4.6c-0.7-1.3-2-3.1-3.5-5c0.4,0.3,0.9,0.5,1.4,0.5c0.5,0,1-0.2,1.3-0.5c0.3-0.3,0.5-0.8,0.6-1.3v-0.1
									c0-0.6-0.3-1.3-0.8-1.8c-0.5-0.5-1.2-0.9-1.9-0.9c-0.5,0-1,0.2-1.3,0.5c-0.4,0.3-0.5,0.8-0.6,1.3c0,0,0,0.1,0,0.1
									c0,0.3,0,0.6,0.2,0.8c-2.1-2.7-4-5.3-4-6.7c0-1.3,0.9-2.4,2-3.7c0.1,0,0.4,0.2,0.4,0.2l0.3-0.3c0.4-0.4,1.2-1.3,2.8-3
									l0.1-0.1l0.4-0.4l-1-0.8c0.3-0.6,0.5-1.3,0.7-2c0.3,1.3,1,2.2,1.9,1.9c-0.6-1.4,0.6-3.2-0.2-6.5c0.8,1.3,1.9,2,2.7,1.7
									c-2.1-1.9,0.6-4.5-2.1-8.5c0.9,0.3,1.5,0.1,1.9-0.3c-2.5-0.3-1.4-3.5-5.8-4.7c1.1-0.2,1.7-0.8,1.6-1.4
									c-1.2,0.8-2.2-1.5-6-1.5c-0.2-1.4-1.6-2.9-3.1-3.6c0.3,1.1,0,2.1-0.3,2.9L88,4.2c-0.4-0.3-0.6-0.4-0.7-0.3
									c-0.1,0.1-0.1,0.3,0.1,0.6l10.7,13.3c-0.8,0.3-1.6,0.6-2.4,0.9c-0.5,0.2-0.9,0.7-0.9,1.4c-2,1-3.7,2.2-4.6,3
									c-0.7,0.6-1.2,0.7-0.6,2.1c0.2,0.5-0.5,1.8,1.1,0.8c1-0.6,3.3-1.8,3.7-1.1c0.2,0.4-1,1-1.8,1.3c-0.8,0.3-1.6,0.9-1.5,1.2
									c0.1,0.3,0.7,0,0.8,0.3c0,0.4,0.3,0.7,0.6,0.7s0.7-0.6,1-0.4c0.3,0.2-0.1,1.7-0.4,2c1.2-0.2,2-1.3,2-2.2
									c0-0.9,0.3-1.1,0.5-1.2c0.2-0.1,0.4,1,0.1,1.6c0.7-0.1,1.3-1,1.2-2.5c0.3-0.3,0.7-0.4,0.9-0.4c0.4,0,1.2,1.1,2.4,1.1
									c2.1,0,3.3-1.7,3.4-2.5c0.1-0.6,0.1-1.3-0.3-1.7c0.8,0.6,1,1.5,1,2.3c0,3-5.3,4.4-7.5,6.4c-0.1,0.1-0.2,0.2-0.2,0.2l-2.5-1
									l-0.2,0.5c0,0,0,0.1-0.1,0.5c-0.3,0.8-0.8,2.6-1.1,3.6l-0.1,0.4l0.2,0.1c-1.5,2-2.7,4.1-2.9,6.4c-0.6-0.6-1.2-1.1-1.8-1.6
									c0.1-0.2,0.1-0.5,0.1-0.7c0-0.7-0.2-1.3-0.6-1.7c-0.3-0.4-0.7-0.6-1.1-0.6c-0.4,0-0.9,0.1-1.2,0.4c-0.1,0.1-0.2,0.1-0.2,0.2
									c-0.1-0.1-0.2-0.1-0.3-0.2c-0.8-0.6-1.8-1.4-2.5-2c-0.3-0.3-0.5-0.4-1.1-0.4c-0.2,0-0.7,0-1.1,0s-0.6,0.3-1,0.7
									c-0.2,0.2-1,0.8-1.8,1.4c0.4,0.4,0.8,0.8,1.1,1.2c0.1,0.1,0.2,0.2,0.3,0.3c0.4-0.3,0.6-0.5,0.8-0.6c0.3-0.2,0.6-0.3,0.9-0.3
									c0.3,0,0.8,0.2,1.1,0.7c0.2,0.3,2.3,2.9,3.9,4.8c-0.2,0.1-0.4,0.1-0.5,0.2c-0.7,0.3-2.3,0.2-3,0.2c-0.7-0.1-0.9-0.2-1.4,0.5
									c-0.2,0.3-0.4,0.6-0.7,0.9c-0.2,0.3-0.4,0.6,0.1,1.5c0.7,1.2,2.6,4.5,3.2,5.9c0.6,1.5,1.3,1.7,2.5,2.2
									c1.2,0.5,3.1,1.6,3.4,1.9L89,55c-0.3-0.4-1.5-0.8-1.9-0.9c-0.4-0.2-0.5-0.3,0-0.3c0.5,0,1.9,0.5,2.9,0.9
									c-0.3-1.1-1.4-2.3-2-3c-0.8-0.2-1.7-0.2-2,0c0,0.2-0.1,0.5-0.5,0.5c-0.3,0-0.6-0.3-0.5-0.6c0.1-0.3,0.6-0.4,0.5-1.1
									c-0.1-0.6-0.9-0.7-1.4-0.8c-0.7-1-1.5-2.5-1.9-3.1c-0.4-0.6-0.2-0.9,0.1-1.1c0.6-0.5,1.9,0.3,4.4,0.4c0.9,0,2,0.1,3.2,0.2
									c0.3,2.9,1.5,5.7,5.6,6.7c2,0.5,4.1,1.9,4.8,3.8c-8.2-0.1-9.5,3-9.5,6c0,3.4,2.9,3.2,2.9,5.7c0,2.2-6.9,3.1-9,3.4
									c-1.8,0.3-2.8,0.6-3.6,1.5c-0.9,0.8-1.7,1.6-3.3,3.2c0,0,0.6,0.1,1.3,0.1l1.2-1.5c0.3-0.5,0.6-0.9,0.8-0.9
									c0.2,0,0.1,0.4-0.2,0.9l-1,1.6c4,0.3,4.3-1.2,4.3-1.8c0-0.6-1-1-0.4-1.4c0.6-0.4,1.1-0.1,1.5,0.4c0.5,0.5,0.6,1,1.7,0.6
									c0,0,8.8-3.6,9.9-4.1c1-0.4,0.7-0.9,0.1-1.4c-0.7-0.5-0.8-1.4-0.8-2.3c0-2.6,1.6-3.5,4.5-3.4c0,0.4-0.1,0.9-0.1,1.3
									c0,4.1,6.3,8.1,8,8.1c0.8,0,1.8-0.6,1.8,1.9c0,1.8,0.4,3.1,0.1,5.2c-0.3,2.1-0.9,2.4-2.2,3.3c-1.3,0.9-2.5,3.7-3,4.3
									c0.6,0.4,1.2,0.4,1.7-0.9c0.4-1.1,0.9-1.9,1.3-2.2c-0.5,1.2-0.9,3-1.1,3.6c1.6,0.3,4.2-1.2,4.2-2.3c0-1.1-0.9-1-0.9-1.8
									c0-0.3,0.4-0.7,0.9-0.7c0.7,0,1.1,0.5,1.2,0.7c0.7-0.4,1.2-1.1,1.1-2.7c0-0.6,0-1.3-0.1-2c0,0.1,0.1,0.2,0.2,0.3
									c0.3,0.5,0.8,0.8,1.4,0.8c0.6,0,1.2-0.1,1.8-0.5c0.6-0.4,1.1-1,1.2-1.7c0-0.1,0-0.3,0-0.4c0-0.4-0.1-0.7-0.3-1
									c-0.3-0.4-0.7-0.7-1.2-0.8c-0.7-0.1-1.4,0-2,0.4c-0.6,0.4-1,0.9-1.2,1.5c-0.1-2.2-0.3-4.3-0.2-5.2c0.1-1.3,0.1-1.8-0.3-2
									s-0.9,0.5-1.5,0.5s-2.5-1.7-2.5-3.5c0-1.8,2-4.1,1.9-6.5c0-0.8,0.4-1.1,0.8-0.5c0.4,0.8,0.9,2,1.8,2.9
									c-0.5,3.1,2.9,6,5.7,3.8c-1.4,0.2-2.3-1-3-2.2c0.2,0,0.5,0.1,0.8,0.1c0.2,0,0.3,0,0.4,0c1,1.2,4.1,1.1,4.9-1.9
									c-0.6,0.6-1.7,1.1-2.5,1c1.2-0.9,1.8-2.4,1.8-4c0-7.8-9.5-8.7-9.5-15.7c0-2.6,2.3-4.3,3.9-4.3c0.6,0,1.1,0.2,1.5,0.5
									c-0.6,0.6-0.9,1.5-0.9,2.7c0.3,5.6,9.5,5.3,9.6,8C126.6,51,126.5,50.5,126.4,50.1z M95.7,22c0.5-0.8,0-2.1,1.6-2.1
									c0.8,0,1.5,0.8,2.4,1.1C98.2,21,96.8,21.3,95.7,22z M86.8,40.2c-0.1,0.1-0.3,0.3-0.6,0.2c-0.5,0-1-0.7-1-1.3
									c0,0,0-0.1,0-0.1c0-0.4,0.2-0.9,0.5-1.1c0.1-0.1,0.4-0.3,0.6-0.2c0.3,0,0.5,0.2,0.6,0.3c0.3,0.3,0.4,0.7,0.4,1.2
									C87.3,39.5,87.1,39.9,86.8,40.2z M114.6,78.2c0.1-0.4,0.4-0.9,0.9-1.2c0.5-0.3,1-0.4,1.4-0.3c0.2,0,0.5,0.2,0.7,0.4
									c0.1,0.2,0.1,0.4,0.1,0.5c0,0.1,0,0.2,0,0.2c-0.1,0.4-0.4,0.9-0.9,1.1c-0.8,0.5-1.7,0.5-2.1-0.1
									C114.5,78.7,114.5,78.4,114.6,78.2z M109.1,51.5L109.1,51.5c0.2-0.2,0.5-0.3,0.8-0.3c0.5,0,0.9,0.2,1.3,0.6
									c0.4,0.4,0.6,0.9,0.6,1.3c0,0.2-0.1,0.5-0.3,0.7h0c-0.2,0.2-0.5,0.3-0.8,0.3c-0.5,0-0.9-0.3-1.3-0.6
									c-0.4-0.4-0.6-0.9-0.5-1.3C108.8,52,108.9,51.7,109.1,51.5z M93,34.7L93,34.7c0.5-1.4,1.3-4.1,1.3-4.1l0-0.1l1.8,0.7
									l-0.2,0.1c-0.3,0.1-0.8,0.4-1.2,0.9c0.3,0.1,0.8,0.1,1.1-0.1l0.3-0.2l-0.8,1.9l-0.1-0.2c-0.1-0.2-0.5-0.6-0.8-0.8
									c0,0.1,0,0.3,0,0.4c0,0.7,0.5,1,1,1.3c0.8,0.4,1.4,0.5,1.6,0.2c0-0.1,0.1-0.2,0.1-0.2c0-0.1-0.1-0.3-0.2-0.4
									c-0.2-0.2-0.5-0.3-0.8-0.1l-0.1,0l0-0.1c-0.1-0.5,0.1-0.8,0.3-1c0.2-0.2,0.4-0.3,0.7-0.3c0.3,0,0.6,0.2,0.7,0.5
									c0.1-1.1,0.7-1.8,1.7-2.1l0.1,0l0,0.1c0.1,0.3,0.2,0.7,0.2,1c0,0.6-0.3,1.2-0.8,1.7c0.4-0.1,0.8,0,1,0.3
									c0.2,0.2,0.2,0.5,0.1,0.7c0,0.2-0.2,0.5-0.7,0.8l-0.1,0.1l0-0.1c-0.1-0.3-0.3-0.5-0.6-0.6c-0.3,0-0.5,0.1-0.6,0.3
									c-0.2,0.4,0.1,0.8,0.9,1.3c1,0.5,1.6,0.1,2-0.5c-0.3,0-0.7,0-1.1,0.3l-0.3,0.2l1.3-2.3l0,0.3c0,0.1,0.1,0.5,0.5,0.9
									c0.1-0.2,0.2-0.5,0.2-0.8c0-0.2,0-0.5-0.1-0.7l-0.1-0.3l2.6,1.5l-0.3,0c-0.5,0-0.9,0.3-1.3,0.8c0.5,0.1,0.9,0,1,0l0.3-0.1
									l-1.4,2.3l0-0.4v-0.1c0-0.5-0.1-0.8-0.3-1c-0.1,0.2-0.2,0.5-0.2,0.7c0,0.4,0.2,0.9,0.8,1.2c0.8,0.5,1.3,0.5,1.6,0.1
									c0.1-0.2,0.1-0.4-0.1-0.6c-0.2-0.2-0.5-0.3-0.8-0.2l-0.1,0.1v-0.1c0-0.5,0.2-0.8,0.3-0.9c0.2-0.2,0.4-0.3,0.7-0.3
									c0.4,0,0.6,0.3,0.8,0.7c0.4-1.1,1-1.7,2.1-1.9l0.1,0l0,0.1c0,0.2,0.1,0.4,0.1,0.6c0,0.8-0.4,1.5-1.1,2
									c0.3,0,0.6,0.1,0.8,0.4c0.1,0.2,0.1,0.3,0.1,0.5c0,0.1,0,0.2,0,0.3c-0.1,0.2-0.2,0.5-0.7,0.7l-0.1,0l0-0.1
									c-0.1-0.4-0.3-0.6-0.6-0.6c-0.2-0.1-0.5,0-0.6,0.2c-0.2,0.3,0.1,0.8,0.9,1.3c0.5,0.3,1.2,0.7,1.9,0
									c-0.3-0.2-0.8-0.3-1.1-0.3h-0.2l1.3-1.6l0,0.3v0.1c0,0.3,0.2,0.7,0.4,0.9c0.1-0.4,0.2-0.8,0.2-1.1c0-0.1,0-0.2,0-0.3l0-0.3
									l1.5,1.2l-0.1,0.1c0,0-2,2.1-2.9,3.1l0,0.1L93,34.7z M106.1,66.8c-0.5,0.7-1.4,1-2,0.6c-0.6-0.4-0.6-1.3-0.1-2
									c0.5-0.7,1.4-1,2-0.6C106.6,65.2,106.6,66.1,106.1,66.8z M109.9,60.9c-0.5,0.7-1.4,1-2,0.6s-0.6-1.3-0.1-2
									c0.5-0.7,1.4-1,2-0.6C110.3,59.3,110.4,60.2,109.9,60.9z"/>
								<path id="Fill-51" class="st1" d="M65.3,85.9c-0.2,0-0.5,0-0.7,0.1v-3.7c-1.7-0.1-3.7-0.4-5.7-0.9V86
									c-0.2-0.1-0.4-0.1-0.7-0.1c-1.4,0-2.2,1.1-2.2,2.2c0,1,0.6,1.9,1.1,2.5c0.3-0.6,0.5-1.1,0.8-1.1c0.7,0,0.4,3.3,2.4,3.4
									c-0.1,0.2-0.1,0.3-0.1,0.5c0,0.8,0.7,1.5,1.6,1.5c0.8,0,1.5-0.7,1.5-1.5c0-0.2,0-0.4-0.1-0.5c2-0.1,1.6-3.4,2.3-3.4
									c0.3,0,0.6,0.5,0.9,1.1c0.5-0.6,1.1-1.5,1.1-2.5C67.5,87,66.6,85.9,65.3,85.9z M61.8,94.2c-0.5,0-0.9-0.4-0.9-0.8
									c0-0.5,0.4-0.9,0.9-0.9c0.5,0,0.9,0.4,0.9,0.9C62.6,93.9,62.2,94.2,61.8,94.2z M66.4,89.4c-0.2-0.4-0.6-0.7-0.9-0.7
									c-1.3,0-0.8,3.4-2.4,3.4c-0.7,0-1.1-0.4-1.1-0.9c0-0.5,0.3-0.6,0.3-1c0-0.4-0.3-0.5-0.6-0.5c-0.4,0-0.7,0.1-0.7,0.5
									c0,0.4,0.4,0.5,0.4,1c0,0.5-0.4,0.9-1.1,0.9c-1.6,0-1.1-3.4-2.4-3.4c-0.3,0-0.6,0.2-0.9,0.7c-0.3-0.5-0.4-1-0.4-1.4
									c0-0.6,0.5-1.5,1.5-1.5c1.8,0,1.3,2.4,2.2,2.4c0.4,0,0.6-0.2,0.6-0.6c0-0.7-1.2-1.3-1.2-2.3c0-1,0.9-1.8,1.9-2.6
									c1,0.8,1.9,1.6,1.9,2.6c0,1-1.2,1.6-1.2,2.3c0,0.4,0.3,0.6,0.7,0.6c0.8,0,0.4-2.4,2.2-2.4c1,0,1.5,0.9,1.5,1.5
									C66.8,88.4,66.7,88.9,66.4,89.4z"/>
								<path id="Fill-52" class="st1" d="M54.1,18c-0.6,1.1-1.1,1.8-1,2.6c0.1,0.9,1,1.5,1.4,2.3c0.4-1,1.1-1.8,1-2.6
									C55.4,19.7,54.3,18.6,54.1,18L54.1,18z"/>
								<path id="Fill-53" class="st1" d="M69.4,18c0.6,1.1,1.1,1.8,1,2.6c-0.1,0.9-1,1.5-1.4,2.3c-0.4-1-1.1-1.8-1-2.6
									C68.1,19.7,69.2,18.6,69.4,18L69.4,18z"/>
								<path id="Fill-54" class="st1" d="M45.3,17.4c0.6,0,1-0.5,1-1s-0.5-1-1-1c-0.6,0-1,0.5-1,1S44.8,17.4,45.3,17.4L45.3,17.4z"
									/>
								<path id="Fill-55" class="st1" d="M46,18.8c0-0.6-0.5-1-1-1c-0.6,0-1,0.4-1,1c0,0.6,0.5,1,1,1C45.6,19.9,46,19.4,46,18.8
									L46,18.8z"/>
								<path id="Fill-56" class="st1" d="M46.5,21.3c0-0.6-0.5-1-1-1c-0.6,0-1,0.5-1,1c0,0.6,0.5,1,1,1
									C46.1,22.3,46.5,21.9,46.5,21.3L46.5,21.3z"/>
								<path id="Fill-57" class="st1" d="M51,12.5c0.6,0,1-0.5,1-1c0-0.6-0.5-1-1-1c-0.6,0-1,0.5-1,1C50,12.1,50.5,12.5,51,12.5
									L51,12.5z"/>
								<path id="Fill-58" class="st1" d="M48.5,13.3c0.6,0,1-0.5,1-1c0-0.6-0.5-1-1-1c-0.6,0-1,0.5-1,1
									C47.4,12.9,47.9,13.3,48.5,13.3L48.5,13.3z"/>
								<path id="Fill-59" class="st1" d="M46.5,15.1c0.6,0,1-0.5,1-1c0-0.6-0.5-1-1-1c-0.6,0-1,0.5-1,1
									C45.4,14.6,45.9,15.1,46.5,15.1L46.5,15.1z"/>
								<path id="Fill-60" class="st1" d="M53.7,12.8c0.6,0,1-0.5,1-1c0-0.6-0.5-1-1-1s-1,0.5-1,1C52.7,12.3,53.2,12.8,53.7,12.8
									L53.7,12.8z"/>
								<path id="Fill-61" class="st1" d="M56.3,13.5c0.6,0,1-0.5,1-1c0-0.6-0.5-1-1-1c-0.6,0-1,0.5-1,1
									C55.3,13.1,55.7,13.5,56.3,13.5L56.3,13.5z"/>
								<path id="Fill-62" class="st1" d="M58.7,14.6c0.6,0,1-0.5,1-1c0-0.6-0.5-1-1-1c-0.6,0-1,0.5-1,1
									C57.7,14.2,58.1,14.6,58.7,14.6L58.7,14.6z"/>
								<path id="Fill-63" class="st1" d="M77.1,16.4c0,0.6,0.5,1,1,1c0.6,0,1-0.5,1-1c0-0.6-0.5-1-1-1
									C77.6,15.4,77.1,15.8,77.1,16.4L77.1,16.4z"/>
								<path id="Fill-64" class="st1" d="M78.5,17.8c-0.6,0-1,0.5-1,1c0,0.6,0.5,1,1,1c0.6,0,1-0.5,1-1
									C79.5,18.3,79,17.8,78.5,17.8L78.5,17.8z"/>
								<path id="Fill-65" class="st1" d="M78,20.3c-0.6,0-1,0.5-1,1c0,0.6,0.5,1,1,1s1-0.4,1-1C79,20.7,78.5,20.3,78,20.3L78,20.3z
									"/>
								<path id="Fill-66" class="st1" d="M72.4,12.5c0.6,0,1-0.5,1-1c0-0.6-0.5-1-1-1c-0.6,0-1,0.5-1,1
									C71.4,12.1,71.9,12.5,72.4,12.5L72.4,12.5z"/>
								<path id="Fill-67" class="st1" d="M75,13.3c0.6,0,1-0.5,1-1c0-0.6-0.5-1-1-1c-0.6,0-1,0.5-1,1C74,12.9,74.4,13.3,75,13.3
									L75,13.3z"/>
								<path id="Fill-68" class="st1" d="M77,15.1c0.6,0,1-0.5,1-1c0-0.6-0.5-1-1-1c-0.6,0-1,0.5-1,1C76,14.6,76.4,15.1,77,15.1
									L77,15.1z"/>
								<path id="Fill-69" class="st1" d="M69.7,12.8c0.6,0,1-0.5,1-1c0-0.6-0.5-1-1-1c-0.6,0-1,0.5-1,1
									C68.7,12.3,69.2,12.8,69.7,12.8L69.7,12.8z"/>
								<path id="Fill-70" class="st1" d="M67.2,13.5c0.6,0,1-0.5,1-1c0-0.6-0.5-1-1-1c-0.6,0-1,0.5-1,1
									C66.1,13.1,66.6,13.5,67.2,13.5L67.2,13.5z"/>
								<path id="Fill-71" class="st1" d="M63.7,13.6c0,0.6,0.5,1,1,1c0.6,0,1-0.5,1-1c0-0.6-0.5-1-1-1
									C64.2,12.6,63.7,13.1,63.7,13.6L63.7,13.6z"/>
								<path id="Fill-72" class="st1" d="M60,19.1h1.2v-4.4c-0.4-0.1-0.8-0.2-1.2-0.3V19.1z"/>
								<path id="Fill-73" class="st1" d="M63.5,14.4c-0.4,0.2-0.8,0.3-1.2,0.4v4.4h1.2V14.4z"/>
								<path id="Fill-74" class="st1" d="M61.1,9.6V7c-1.3,0.3-2.3,1.3-2.5,2.6H61.1z"/>
								<path id="Fill-75" class="st1" d="M62.4,9.6h2.5c-0.2-1.3-1.2-2.3-2.5-2.6V9.6z"/>
								<path id="Fill-76" class="st1" d="M58.6,10.9c0.3,1.4,1.6,2.5,3.2,2.5c1.6,0,2.8-1.1,3.2-2.5H58.6z"/>
								<path class="st1" d="M64.5,2.3v3.5c-0.6-0.7-1.5-1.3-2.4-1.5c0.1,0.9,0.7,1.7,1.4,2.3H60c0.7-0.6,1.3-1.4,1.4-2.3
									c-0.8,0.1-1.8,0.7-2.3,1.5V2.3c0.6,0.7,1.5,1.3,2.3,1.5c-0.1-0.9-0.6-1.6-1.3-2.5h3.4c-0.7,0.9-1.3,1.7-1.4,2.5
									C62.9,3.7,63.9,3.1,64.5,2.3z"/>
								<path id="Fill-78" class="st1" d="M67.3,76.4c-3.2-0.8-7.1-2.2-10.7-3.8l0,0c0.1-0.7-0.2-1.5-0.7-2.2c-0.6-0.6-1.3-1-2-1
									c-0.3,0-0.7,0.1-1,0.2c-0.5-0.5-1-1-1.5-1.5c-1.4-1.6-2.4-3.4-3.2-5.4c-0.4-1.2-0.7-2.4-0.9-3.6c-0.2,1-1.4,2.2-3.5,2.3
									c0-0.2,0-0.5-0.2-0.6c-0.5,0.6-1.2,1.2-3.1,0.5c0.3,1.4,0.7,2.8,1.2,4.2c1.1,2.9,2.7,5.5,4.7,7.7c0.7,0.7,1.4,1.4,2.1,2
									c0,0.1,0,0.3,0,0.4c0,0.8,0.7,1.9,1.8,2.5c0.9,0.4,1.8,0.3,2.7-0.3c1.6,0.8,3.6,1.6,5.8,2.2c2.4,0.7,4.8,1,6.6,1
									c1.6,0,3.7-0.7,5.7-2c0.8-0.5,1.6-1.1,2.2-1.6c0.1-0.1,0.2-0.2,0.2-0.2C71.7,77.4,69.3,76.9,67.3,76.4z M42.8,65.1
									c-0.3-0.7-0.3-1.3,0-1.9c0.3-0.6,0.7-1,1.3-1.2c0.6-0.2,1.3-0.2,1.9,0c0.6,0.3,1.1,0.8,1.3,1.4c0.1,0.3,0.2,0.6,0.2,1
									c0,0.3-0.1,0.7-0.2,0.9c-0.3,0.6-0.7,1-1.3,1.3c-0.6,0.2-1.3,0.2-1.8,0C43.5,66.3,43,65.8,42.8,65.1z M46.7,71.8l-0.8-1.1
									c0,0,1.3-0.9,1.4-1c-0.1-0.1-0.7-1-0.8-1.1c-0.1,0.1-1.4,1-1.4,1l-0.8-1.1l3.9-2.7l0.8,1.1c0,0-1.3,0.9-1.4,1
									c0.1,0.1,0.7,1,0.8,1.1c0.1-0.1,1.4-1,1.4-1l0.8,1.1L46.7,71.8z M55.4,71.6l-0.3-0.3c-0.6-0.5-1.2-0.5-1.7,0
									c-0.3,0.2-0.5,0.5-0.8,0.8l-0.3,0.4l0.2,0.2c0.7,0.5,0.8,1.1,0.6,1.4c-0.1,0.1-0.2,0.2-0.3,0.3c-0.3,0.1-0.8,0-1.3-0.3
									L51.2,74L51,74.2c0,0.1-0.1,0.1-0.1,0.2c-0.1,0.1-0.1,0.2-0.2,0.3c-0.3,0.5-0.4,0.9-0.4,1.2c0,0.1,0,0.2,0,0.3
									c0.1,0.4,0.4,0.5,0.7,0.7l0.1,0.1c0.3,0.2,0.7,0.4,1,0.6c-0.6,0.3-1.2,0.4-1.8,0.1c-0.9-0.4-1.5-1.4-1.5-1.9
									c0-0.8,0.4-1.7,1-2.7l0.1-0.2L50,72.6c-0.2-0.3-0.3-0.6-0.5-0.9c0.3,0,0.7,0.1,1,0.2l0.2,0l0.1-0.1c0.4-0.4,1.8-1.8,3-1.8
									c0.6,0,1.2,0.3,1.6,0.8c0.3,0.4,0.5,0.8,0.6,1.2C55.8,71.9,55.6,71.8,55.4,71.6z M57.5,77.7c-0.8,0-1.4-0.6-1.4-1.4
									c0-0.8,0.6-1.4,1.4-1.4c0.8,0,1.4,0.6,1.4,1.4C58.9,77.1,58.3,77.7,57.5,77.7z M63.6,79.6c-0.7,0-1.3-0.6-1.3-1.3
									c0-0.7,0.6-1.3,1.3-1.3c0.7,0,1.3,0.6,1.3,1.3C64.9,79,64.3,79.6,63.6,79.6z"/>
								<path id="Fill-79" class="st1" d="M46.1,64.3L46.1,64.3c0-0.2,0-0.3-0.1-0.5c-0.2-0.6-0.8-0.9-1.4-0.6
									C44,63.5,43.8,64,44,64.6c0.1,0.3,0.3,0.5,0.6,0.6c0.3,0.1,0.5,0.1,0.8,0C45.8,65.1,46.1,64.8,46.1,64.3L46.1,64.3z"/>
								<path id="Fill-80" class="st1" d="M46.8,44c-0.5-0.3-1.1-0.1-1.4,0.5c-0.1,0.3-0.2,0.5-0.1,0.8c0.1,0.2,0.3,0.4,0.5,0.6
									c0.2,0.1,0.5,0.2,0.8,0.1c0.3-0.1,0.5-0.3,0.6-0.5c0.1-0.2,0.1-0.3,0.1-0.5C47.3,44.5,47.1,44.1,46.8,44L46.8,44z"/>
								<polygon id="Fill-81" class="st1" points="75.2,41.5 74.7,41.6 74.9,41.9 								"/>
								<path id="Fill-82" class="st1" d="M81.3,50.9l-0.4-0.9l0,0c-0.1,0.1-0.2,0.2-0.3,0.4c-0.1,0.1-0.1,0.1-0.1,0.2
									c0.1,0,0.2,0.1,0.3,0.1C80.9,50.8,81.1,50.9,81.3,50.9L81.3,50.9z"/>
								<path id="Fill-83" class="st1" d="M80.9,56.9c0.1,0,0.2,0,0.2-0.2c0,0,0-0.2,0-0.3c-0.1,0-0.3,0-0.4,0l0,0.2
									c0,0.1,0,0.2,0.1,0.2C80.8,56.9,80.8,56.9,80.9,56.9L80.9,56.9z"/>
								<path id="Fill-84" class="st1" d="M57,34.9c-0.2-0.1-0.5-0.1-0.8,0c-0.3,0.1-0.6,0.3-0.7,0.6c-0.1,0.3-0.1,0.6,0,0.8
									c0.1,0.2,0.4,1,1.5,0.6c0.3-0.1,0.5-0.3,0.6-0.5c0.1-0.1,0.1-0.3,0.1-0.4c0-0.1,0-0.2-0.1-0.4C57.4,35.3,57.2,35.1,57,34.9
									L57,34.9z"/>
								<path id="Fill-85" class="st1" d="M83.5,54.2c-0.5-0.3-1-0.8-1.4-1.6c-0.5-0.2-1.9-0.7-2.5-0.9c0,0-0.3-0.1-0.3-0.1l-2,0.5
									L77,50.8l1.9-0.5c0,0,0.1-0.1,0.2-0.2c0.3-0.4,0.8-1.1,1.1-1.3c-0.5-0.9-1-1.7-1.3-2.2c-0.3-0.5-0.5-1-0.5-1.3l-1.8,0.9
									c0.1,0.1,0.8,1.6,0.8,1.6l-1.2,0.6l-1.4-2.8l4.3-2l0.2,0.3c0.1-0.1,0.2-0.3,0.3-0.5c0.1-0.2,0.3-0.4,0.4-0.5
									c-0.8-1.4-1.8-2.7-2.9-3.9c-1.3-1.5-2.8-2.7-4.4-3.8c0.9-0.5,1.7-1.4,1.7-2.7c0-0.8-0.3-1.4-0.9-1.9
									c0.9-2.9,2.5-6.3,3.9-7.8l-2.9-1.2c0.8,1.1,0.8,2.5,0.6,3.2c-0.8-0.5-1.4-1.2-1.6-2.2c-0.1,0.9-0.6,2.3-1.1,3.1
									c0.8-0.4,1.5-0.6,2.4-0.2c-0.5,0.6-1.8,1.7-3.7,1.2c-1-0.2-2.1-0.8-2-1.6c0-0.5,0.4-1,1-1c0.6,0.1,0.7,1,0.5,1.4
									c0.8-0.5,1.7-2.9,0.4-3.2c-1-0.3-2,1.1-2.3,2.2c-0.2-1.3-0.7-2.5-1.8-2.5c-1.4,0.1-0.9,2.5-0.4,3.2c0.1-0.9,0.5-1.3,0.9-1.3
									c0.4,0,0.8,0.3,0.8,1.1c-0.1,0.8-1.2,1.3-2.5,1.3c-1.2,0-3.4-0.4-3.6-2.7c0.8,0.1,2,0.7,2.6,1.5c-0.2-1.4-0.2-2.4,0-3.9
									c-0.7,0.9-1.8,1.4-2.6,1.5c0.2-1,1.1-2.1,2.1-2.7h-5.3c1,0.6,1.9,1.7,2.1,2.7c-0.8-0.1-1.9-0.6-2.5-1.5
									c0.2,1.5,0.2,2.5,0,3.9c0.5-0.8,1.8-1.4,2.5-1.5c-0.2,2.3-2.4,2.7-3.6,2.7c-1.3,0-2.4-0.5-2.5-1.3c-0.1-0.8,0.4-1,0.8-1.1
									c0.4,0,0.9,0.4,0.9,1.3c0.5-0.6,0.9-3.1-0.4-3.2c-1-0.1-1.6,1.2-1.8,2.5c-0.3-1.1-1.3-2.5-2.3-2.2c-1.3,0.4-0.4,2.8,0.4,3.2
									c-0.2-0.4-0.2-1.4,0.5-1.4c0.6-0.1,1,0.5,1,1c0,0.8-1,1.3-2,1.6c-1.9,0.5-3.2-0.5-3.7-1.2c0.9-0.4,1.6-0.2,2.4,0.2
									c-0.4-0.8-0.9-2.3-1.1-3.1c-0.2,1-0.9,1.7-1.7,2.2c-0.2-0.8-0.1-2.1,0.6-3.3l-2.9,1.2c1.4,1.5,3,5,3.9,7.9
									c-0.6,0.5-0.9,1.1-0.9,1.9c0,1.3,0.9,2.1,1.7,2.7c-1.6,1-3.1,2.3-4.4,3.8c-2,2.2-3.6,4.8-4.7,7.7c0,0.1-0.1,0.3-0.1,0.4
									c0.3,0.3,0.6,0.7,1,1c0,0,0-0.1,0.1-0.1c0.1-0.4,0.6-0.8,0.9-1l1.5,0.6c-0.6,0.4-1.3,1-1.2,1.2c0.1,0.1,0.4-0.2,0.5-0.3
									c0.4-0.3,1.1-0.9,2-0.5c0.4,0.2,0.7,0.4,0.8,0.8c0.2,0.4,0.2,0.8,0,1.1c-0.2,0.4-0.6,0.9-1.1,1.2l-1.3-0.5
									c0.5-0.3,1.1-0.9,1.2-1.1c0-0.1,0-0.2,0-0.2c-0.1-0.1-0.4,0.1-0.7,0.3c-0.3,0.2-0.6,0.5-1,0.5c0.6,0.9,1,1.7,1.1,2.4
									c0,1.3,0.3,1.8,1,2.7c1.1,1.3,0,1.2,0.9,2.8c0-0.5-0.1-0.9-0.1-1.4h14.5v15.6c-0.6,0-1.2,0.1-1.7,0.7c1.7,0.7,3.4,1.3,5,1.8
									c0.2-1,0.4-1.5,1-2.1c0,0-2.2-0.2-3.3-0.3V56.4h14.2c0,2.2-0.4,4.3-1.2,6.2c-0.8,2-1.8,3.9-3.2,5.4c-1.4,1.6-3,2.8-4.7,3.7
									c-0.4,0.2-0.7,0.9-1,1.4c-0.2,0.5-0.4,0.9-0.5,1.5c0.7,0.2,0.8,0.3,1.4,0.5c5,1.2,6.3,1,6.6,0.8c1.1-0.9,2.2-1.8,3.1-2.9
									c2-2.2,3.6-4.8,4.7-7.7c1.1-3,1.7-6.2,1.7-9.4C83.6,55.4,83.6,54.8,83.5,54.2z M76.7,39.7l0.6,0.7l-2.5,4.8L73.9,44l0.5-0.8
									L73.4,42l-0.8,0.3l-1.1-1L76.7,39.7z M73.5,36.6l0.8,0.6l-2.9,3.8l-1.1-0.8l1.5-1.9l-1.4,0.4l-0.2-1.5l-1.4,1.9l-1.2-0.7
									l2.8-3.9l0.9,0.5l0.3,2L73.5,36.6z M50,32.5c0-2.7,7.8-3,11.7-3h0c2,0,4.9,0.1,7.3,0.5c2.4,0.4,4.4,1.1,4.4,2.5
									c0,0.8-0.5,1.4-1.6,2c-2-1.3-5.3-2.7-10.1-2.7c-4.8,0-8.2,1.4-10.1,2.7C50.5,33.9,50,33.2,50,32.5z M66.7,33.5l-0.9,4.7
									L64.3,38l0.9-4.7L66.7,33.5z M59.7,37.1l-0.6,1.3c-1,0.2-2.1,0-2.4-0.1c-1.1,0.1-2.2-0.5-2.6-1.5c-0.2-0.6-0.2-1.2,0-1.8
									c0.3-0.6,0.8-1.1,1.5-1.3c1.3-0.5,2.7,0.1,3.2,1.4c0.1,0.3,0.1,0.5,0.1,0.8c0,0.5-0.1,0.9-0.4,1.3
									C58.8,37.2,59.2,37.2,59.7,37.1z M50.5,36.5l0.9,0.9l-0.9,0.9c0.1,0.1,2.2,2.3,2.2,2.3l-1,0.9l-2.2-2.4l-1,0.9l-0.9-0.9
									L50.5,36.5z M47,39.8l3.6,2.8l-0.8,1l-3.6-2.8L47,39.8z M46.9,47.1c-0.6,0.2-1.2,0.1-1.8-0.2c-0.5-0.3-1-0.8-1.1-1.3
									c-0.2-0.6-0.1-1.2,0.2-1.8c0.3-0.6,0.8-1,1.4-1.2c0.6-0.2,1.2-0.1,1.8,0.2c0.6,0.3,1,0.8,1.1,1.3c0.1,0.2,0.1,0.4,0.1,0.7
									c0,0.4-0.1,0.8-0.3,1.2C48,46.5,47.5,47,46.9,47.1z M61.5,55.6H47c0-2.2,0.4-4.3,1.2-6.3c0.8-2,1.8-3.9,3.2-5.5
									c1.4-1.6,2.9-2.8,4.7-3.7c1.7-0.9,3.6-1.3,5.5-1.3V55.6z M61.8,37.8c-1,0-2.1-0.6-2.1-1.9l0-2.8l1.4,0v2.7
									c0,0.4,0.1,0.4,0.1,0.5c0.1,0.1,0.3,0.2,0.5,0.2c0.3,0,0.5-0.1,0.6-0.2c0.1-0.1,0.1-0.2,0.1-0.6v-2.7l1.4,0v2.8
									c0,0.5-0.2,1-0.5,1.4C63,37.6,62.5,37.8,61.8,37.8z M62.4,55.6V38.8c1.8,0.1,3.5,0.5,5.1,1.3c1.8,0.9,3.3,2.1,4.7,3.7
									c1.4,1.6,2.4,3.4,3.2,5.5c0.7,2,1.1,4.1,1.2,6.3H62.4z M74.3,74.4l-1-0.9l1.2-1.2l-0.3-0.3l-1.1,1.1l-1-0.9l1.1-1.1L73,70.9
									L71.8,72l-0.9-0.9L73,69l3.4,3.3L74.3,74.4z M78.1,70.2c-0.2,0.3-0.7,0.7-1.1,0.8h0l-1.3-0.9c1.4-0.4,1.5-0.8,1.4-0.9
									c-0.1-0.1-0.3,0.1-0.6,0.2c-0.5,0.2-1.2,0.6-2,0.1c-0.3-0.2-0.6-0.5-0.6-0.9c-0.1-0.4,0-0.8,0.3-1.1
									c0.3-0.4,0.8-0.7,1.3-0.9l1.3,0.9l-0.2,0c-0.6,0.2-1.2,0.5-1.3,0.7c-0.1,0.1-0.1,0.1-0.1,0.2c0,0,0,0,0,0
									c0.1,0.1,0.5-0.1,0.7-0.2c0.5-0.2,1.2-0.5,1.9-0.1c0.3,0.2,0.5,0.5,0.6,0.9c0,0.1,0,0.2,0,0.3
									C78.5,69.5,78.3,69.9,78.1,70.2z M81,64.6l-3,1l2.2,0.9l-0.5,1.2l-4.4-1.8l0.4-1l2.9-1l-2.2-0.8l0.5-1.3l4.4,1.8L81,64.6z
									 M81.7,62.3l-1.3-0.2l0.3-1.6l-0.3-0.1L80,62l-1.3-0.2l0.3-1.5l-0.4-0.1l-0.3,1.6L77,61.5l0.6-3l4.7,0.8L81.7,62.3z
									 M82.4,56.7c0,0.5-0.2,0.9-0.5,1.2c-0.3,0.3-0.7,0.4-1.1,0.4c-0.4,0-0.8-0.2-1-0.4c-0.3-0.3-0.4-0.7-0.4-1.3v-0.2
									c-0.2,0-1.7,0-1.7,0l0-1.4l4.7,0.1L82.4,56.7z"/>
								<path id="Fill-86" class="st1" d="M24.1,89.3c0,0-0.2,0.1-0.3,0.2c0.1,0.2,1.1,1.7,1.2,2c0.1,0,0.3-0.2,0.3-0.2
									c1-0.5,0.9-1.3,0.6-1.7C25.5,88.7,24.8,88.9,24.1,89.3L24.1,89.3z"/>
								<path id="Fill-87" class="st1" d="M88.9,83.2c0.1,0,0.1-0.1,0.2-0.1c0,0,0-0.1,0-0.1c0-0.1-0.1-0.2-0.2-0.3
									c0,0-0.4-0.2-0.4-0.2c0,0-0.2,0.4-0.3,0.5c0.1,0.1,0.3,0.2,0.3,0.2C88.7,83.2,88.8,83.2,88.9,83.2L88.9,83.2z"/>
								<path id="Fill-88" class="st1" d="M82.7,82.5c0.9,0.2,1.5,0.1,1.9-0.8c0.3-0.7,0.1-1.2-1-1.5h0c0,0-0.1,0-0.4-0.1
									c-0.1,0.2-0.8,2.2-0.8,2.3C82.5,82.5,82.7,82.5,82.7,82.5L82.7,82.5z"/>
								<path id="Fill-89" class="st1" d="M92.1,87.6c0.3,0.2,0.7,0.2,1,0.2c0.4-0.1,0.6-0.3,0.8-0.6c0.2-0.3,0.2-0.6,0.1-0.9
									c-0.1-0.3-0.3-0.6-0.6-0.8c-0.4-0.2-0.7-0.2-1-0.2c-0.3,0.1-0.6,0.3-0.8,0.6c-0.2,0.3-0.2,0.6-0.2,0.9
									C91.6,87.2,91.8,87.4,92.1,87.6L92.1,87.6z"/>
								<path id="Fill-90" class="st1" d="M68.6,98.3c-0.3-0.2-0.6-0.3-1-0.3c-0.4,0-0.7,0.1-1,0.4c-0.3,0.2-0.4,0.5-0.4,0.9
									c0,0.4,0.1,0.6,0.4,0.9c0.3,0.2,0.6,0.3,1,0.3c0.4,0,0.7-0.1,1-0.4c0.3-0.3,0.4-0.6,0.4-0.9C69,98.8,68.9,98.5,68.6,98.3
									L68.6,98.3z"/>
								<path id="Fill-91" class="st1" d="M102,94.5c2.7,0,5.1-3.4,8.5-4.9c-8.6,2.4-20.4-11.8-28.4-11.8c-2.3,0-4.9,0.8-6.2,3.9
									c-1.3,3.3-2.9,4.3-2.9,5.8c0,1.3,1.2,2.2,3.1,3.3c1.3,0.7,2.6,1,2.5,2.2c-3.7,1.7-9.7,2.8-16.9,2.8
									c-7.2,0-13.2-1.1-16.9-2.8c-0.1-1.2,1.3-1.5,2.5-2.2c2-1,3.1-2,3.1-3.3c0-1.4-1.5-2.5-2.9-5.8c-1.3-3.1-3.9-3.9-6.2-3.9
									c-8,0-19.9,14.3-28.4,11.8c3.4,1.5,5.8,4.9,8.5,4.9c6.9,0,15-10.3,22.5-10.3c0.1,0,0.2,0,0.3,0c-1.8,2.2-4.2,2.6-4.2,4.8
									c0,1.5,1.3,2.4,2.3,4.5c0.6,1.3,0.7,2.2,1.2,4c0.4,1.6,1.5,5.6,18.2,5.6c16.6,0,17.8-4,18.2-5.6c0.5-1.8,0.6-2.7,1.2-4
									c0.9-2,2.3-3,2.3-4.5c0-2.2-2.5-2.6-4.2-4.8c0.1,0,0.2,0,0.3,0C87,84.3,95.1,94.5,102,94.5z M103.2,89.6l-0.7,1.2
									c-0.4-0.2-1.1-0.5-1.6-0.7c-0.4,0.7-1.7,2.7-2,3.1l-1.3-0.6c0,0,1.5-2.3,2-3.1c-0.4-0.2-1-0.6-1.4-0.8l0.7-1.2
									C100,88.1,102.2,89.2,103.2,89.6z M98.4,87.1l-2.7,4.4l-1.3-0.8l2.8-4.4L98.4,87.1z M92,84c0.7-0.2,1.4,0,2.1,0.3
									c0.7,0.4,1.1,0.9,1.3,1.6c0.1,0.2,0.1,0.5,0.1,0.7c0,0.4-0.1,0.9-0.4,1.3c-0.4,0.6-1,1-1.7,1.2c-0.7,0.1-1.4,0-2.1-0.4
									c-0.7-0.4-1.1-0.9-1.3-1.6c-0.2-0.7-0.1-1.3,0.3-2C90.8,84.6,91.3,84.2,92,84z M89.7,81.5c0.3,0.2,0.6,0.4,0.8,0.8
									c0.3,0.5,0.3,1-0.1,1.5c-0.2,0.3-0.5,0.5-0.8,0.6c-0.1,0-0.3,0-0.4,0c0,0.2,0.1,0.5,0.1,0.7c0.1,1.1,0.2,2.3,0.2,2.3
									c-0.2-0.2-1.5-0.9-1.6-1l-0.1-1.5c0-0.5-0.1-0.8-0.2-0.9c-0.1,0.2-1,1.6-1,1.6L85.3,85l2.6-4.5
									C88.3,80.7,89.3,81.3,89.7,81.5z M82.2,78.5l2,0.5c1.3,0.3,2.4,1.5,1.8,3.2c-0.8,1.9-2.3,2-3.8,1.7l-1.8-0.4L82.2,78.5z
									 M26,92.4l-1.5,0.8l-2.6-4.3l1.6-0.9c0.6-0.3,1.1-0.5,1.5-0.5c0.5,0,0.9,0.1,1.3,0.3c0.4,0.2,0.8,0.5,1,1
									C27.9,90,28,91.4,26,92.4z M30,90.1l-2.8-4.3l1.2-0.8l2.8,4.4L30,90.1z M32.9,88.2l-2.8-4.4l2.9-1.9l0.7,1.2l-1.7,1.1
									c0.1,0.1,0.2,0.3,0.3,0.4l1.6-1.1l0.7,1.2l-1.6,1.1c0.1,0.1,0.2,0.3,0.3,0.5l1.7-1.1l0.7,1.2L32.9,88.2z M38.9,84.9
									c-1.6,0.7-2.5,0-3-1.1L34.7,81l1.3-0.7l1.3,2.8c0.3,0.6,0.6,0.8,1.1,0.5c0.7-0.3,0.7-0.6,0.4-1.1l-1.3-2.9l1.5-0.5l1.2,2.8
									C40.6,83.1,40.5,84.2,38.9,84.9z M41,89.2c0-2,3.2-3.2,4.5-4.8c1.9,0.3,4.4,1.2,4.4,2.9c0,1.9-6.3,2.7-5.8,5.4
									C42.2,91.6,41,90.4,41,89.2z M47.5,100.2l-0.3-5.3c0.8,0.2,2.6,0.7,3.5,0.9l0,1.4c-0.5-0.1-1.3-0.3-2-0.4c0,0.1,0,0.3,0,0.5
									c0.2,0.1,1.8,0.5,1.8,0.5l0.1,1.5c0,0-1.5-0.4-1.8-0.4c0,0,0,0.4,0,0.5c0.5,0.2,1.3,0.4,1.9,0.5l0.1,1.5
									C49.7,101,48.3,100.5,47.5,100.2z M55.8,97.9c-0.4-0.1-1.2-0.1-1.6-0.2v4l-1.5-0.2v-4c-0.4-0.1-1.1-0.2-1.5-0.2v-1.4
									c1.3,0.2,3.1,0.5,4.6,0.6V97.9z M64.2,102.1l-1.5,0v-2.8c-0.4,0.4-1.3,1.5-1.3,1.5s-0.9-1-1.3-1.5v2.8l-1.5,0v-5.3l1.3,0
									c0,0,1.3,1.6,1.5,1.8c0.2-0.3,1.5-1.8,1.5-1.8l1.3,0V102.1z M69.7,101.1c-0.6,0.5-1.3,0.8-2.1,0.8c-0.8,0-1.5-0.2-2.1-0.7
									c-0.6-0.5-0.8-1.2-0.8-1.9c0-0.8,0.3-1.5,0.8-2c0.5-0.5,1.3-0.8,2.1-0.8c0.8,0,1.5,0.2,2.1,0.7c0.6,0.5,0.9,1.2,0.9,1.9
									C70.6,99.9,70.3,100.6,69.7,101.1z M76,100.2l-1.1,0.4c0,0-1.8-1.8-2.2-2.2c0,0.6-0.2,2.8-0.2,2.8l-1.5,0.3l0.3-5.5l1.1-0.2
									l2.3,2.3c0-0.6,0.2-2.8,0.2-2.8l1.5-0.4L76,100.2z M82.5,89.2c0,1.2-1.1,2.4-3.1,3.5c0.6-2.6-5.8-3.4-5.8-5.4
									c0-1.7,2.5-2.5,4.4-2.9C79.3,86,82.5,87.1,82.5,89.2z"/>
							</g>
						</g>
					</g>
				</g>
			</g>
		</g>
	</g>
</g>
</svg>
